<svg xmlns="http://www.w3.org/2000/svg" xmlns:xlink="http://www.w3.org/1999/xlink">
	<defs>
        <symbol id="compare" viewBox="0 0 16 15">
            <path id="Compare" d="M10.676,16.386H5v2.045h5.676V21.5l3.99-4.091-3.99-4.091v3.068Zm4.647-1.7V11.613H21V9.568H15.324V6.5l-3.99,4.091Z" transform="translate(-5 -6.5)" fill="#ef2543"/>
        </symbol>

        <symbol id="wishlist" viewBox="0 0 16.5 16.5">
            <path d="M1731.994,46a.633.633,0,0,1-.47-.223l-6.2-7.033a5.613,5.613,0,0,1-.007-7.241,4.161,4.161,0,0,1,6.409.007l.276.313.269-.306a4.163,4.163,0,0,1,6.409,0,5.629,5.629,0,0,1-.006,7.244l-6.211,7.023A.632.632,0,0,1,1731.994,46Zm-3.475-14.517a2.992,2.992,0,0,0-2.255,1.062,4.01,4.01,0,0,0,0,5.164l5.728,6.5,5.741-6.49a4.021,4.021,0,0,0,0-5.168,2.933,2.933,0,0,0-4.521,0l-.739.839a.614.614,0,0,1-.944,0l-.746-.846A3,3,0,0,0,1728.519,31.481Z" transform="translate(-1723.749 -29.749)" stroke-width="0.5" />
        </symbol>

        <symbol id="cart" viewBox="0 0 17.5 17.5">
            <path d="M1780.481,36.44H1777.6l-3.73-5.359c-.292-.419-.518-.839-1.224-.813,0,0-.518-.093-1.094.813l-4.207,5.359h-2.318a.768.768,0,0,0-.773.773h0a10.559,10.559,0,0,0,2.318,6.959,7.724,7.724,0,0,0,12.364,0,10.561,10.561,0,0,0,2.318-6.959h0A.768.768,0,0,0,1780.481,36.44Zm-7.836-4.418c.017-.025,3.147,4.418,3.147,4.418h-6.6Zm.109,13.7c-3.67,0-6.734-3.6-6.955-7.732h13.909C1779.488,42.122,1776.424,45.719,1772.754,45.719Z" transform="translate(-1764.004 -30.01)" stroke-width="0.5"/>
        </symbol>

        <symbol id="inbox" viewBox="0 0 11.25 10">
            <path d="M.323,10A.378.378,0,0,1,0,9.671V3.421a.291.291,0,0,1,.116-.211L1.81,2.026V.329A.366.366,0,0,1,2.12,0H9.258a.366.366,0,0,1,.31.329V2.039L11.2,3.211c.065.053.052.132.052.211v6.25c0,.158-.052.329-.194.329Zm.815-.526h9.1L6.762,7.079l-.957.75c-.052.039-.078.066-.129.066A.307.307,0,0,1,5.5,7.829l-.918-.711ZM.517,9.263l3.62-2.487L.517,3.987ZM7.189,6.75l3.543,2.421V3.987ZM2.327,4.711,5.689,7.29,9.051,4.711V.526H2.327ZM.7,3.447l1.112.868V2.658Zm8.87.855,1.112-.855L9.568,2.671Zm-5.948.3a.263.263,0,0,1,0-.526H7.758a.263.263,0,0,1,0,.526Zm0-1.184a.263.263,0,0,1,0-.526H7.758a.263.263,0,0,1,0,.526Zm0-1.184a.263.263,0,0,1,0-.526H4.784a.263.263,0,0,1,0,.526Z"/>
        </symbol>

        <symbol id="category" viewBox="0 0 16 5.5">
            <path d="M0,5.5V4H10V5.5Zm0-4V0H16V1.5Z"/>
        </symbol>

        <symbol id="search" viewBox="0 0 21 21">
            <path d="M17153.7,20209.2a8.887,8.887,0,1,1,2.6-6.283,8.884,8.884,0,0,1-2.6,6.283l3.832,3.83Z" transform="translate(-17137.508 -20193.018)" fill="none" stroke="currentColor" stroke-linecap="round" stroke-linejoin="round" stroke-width="2"/>
        </symbol>

        <symbol id="account" viewBox="0 0 10.5 12">
            <path d="M9.188,12v-.214A3.866,3.866,0,0,0,5.25,8a3.866,3.866,0,0,0-3.938,3.782V12H0v-.214A4.943,4.943,0,0,1,1.541,8.2,5.316,5.316,0,0,1,5.25,6.724,5.317,5.317,0,0,1,8.959,8.2,4.943,4.943,0,0,1,10.5,11.786V12ZM2.566,2.752A2.722,2.722,0,0,1,5.25,0,2.722,2.722,0,0,1,7.934,2.752,2.722,2.722,0,0,1,5.25,5.5,2.722,2.722,0,0,1,2.566,2.752Zm1.25,0a1.435,1.435,0,1,0,2.869,0,1.435,1.435,0,1,0-2.869,0Z"/>
        </symbol>

        <symbol id="play" viewBox="0 0 120 120">
            <path d="M0,60A60.068,60.068,0,0,1,60,0a2.442,2.442,0,1,1,0,4.884A55.116,55.116,0,1,0,115.116,60a54.507,54.507,0,0,0-6.1-25.224A55.626,55.626,0,0,0,92.736,15.654a2.442,2.442,0,1,1,2.9-3.927A60,60,0,1,1,0,60ZM40.7,86.965V33.374a2.442,2.442,0,0,1,3.691-2.1L87.624,57.012a2.443,2.443,0,0,1,.074,4.152L57.8,80.428a2.442,2.442,0,1,1-2.645-4.105L81.739,59.193,45.584,37.67V86.965a2.442,2.442,0,1,1-4.884,0Z"/>
        </symbol>

        <symbol id="list" viewBox="0 0 60 60">
            <g transform="translate(-589 -2122)">
                <path d="M172.987,181.573h19.667a.787.787,0,0,0,0-1.573H172.987a.787.787,0,0,0,0,1.573Z" transform="translate(435.795 1962.011)" fill="#fff"/>
                <path d="M92.434,183.444l-1.748,1.671-.709-.709a.787.787,0,1,0-1.112,1.113l1.253,1.253a.787.787,0,0,0,1.1.012l2.3-2.2a.787.787,0,1,0-1.087-1.137Z" transform="translate(508.054 1959.208)" fill="#fff"/>
                <path d="M72.817,156.9a5.339,5.339,0,1,0,5.339,5.339A5.339,5.339,0,0,0,72.817,156.9Zm0,9.1a3.766,3.766,0,1,1,3.766-3.766A3.766,3.766,0,0,1,72.817,166Z" transform="translate(526.436 1982.082)" fill="#ef2543"/>
                <path d="M172.987,281.573h19.667a.787.787,0,0,0,0-1.573H172.987a.787.787,0,0,0,0,1.573Z" transform="translate(435.795 1875.122)" fill="#fff"/>
                <path d="M92.434,283.444l-1.748,1.671-.709-.709a.787.787,0,1,0-1.112,1.113l1.253,1.253a.787.787,0,0,0,1.1.012l2.3-2.2a.787.787,0,1,0-1.087-1.137Z" transform="translate(508.054 1872.32)" fill="#fff"/>
                <path d="M72.817,256.9a5.339,5.339,0,1,0,5.339,5.339A5.339,5.339,0,0,0,72.817,256.9Zm0,9.1a3.766,3.766,0,1,1,3.766-3.766A3.766,3.766,0,0,1,72.817,266Z" transform="translate(526.436 1895.193)" fill="#ef2543"/>
                <path d="M92.434,383.444l-1.748,1.671-.709-.709a.787.787,0,1,0-1.112,1.113l1.253,1.253a.787.787,0,0,0,1.1.012l2.3-2.2a.787.787,0,1,0-1.087-1.137Z" transform="translate(508.054 1785.431)" fill="#fff"/>
                <path d="M72.817,356.9a5.339,5.339,0,1,0,5.339,5.339A5.339,5.339,0,0,0,72.817,356.9Zm0,9.1a3.766,3.766,0,1,1,3.766-3.766A3.766,3.766,0,0,1,72.817,366Z" transform="translate(526.436 1808.305)" fill="#ef2543"/>
                <path d="M172.987,201.573h10.489a.787.787,0,1,0,0-1.573H172.987a.787.787,0,0,0,0,1.573Z" transform="translate(435.727 1944.633)" fill="#fff"/>
                <path d="M172.987,301.573h10.489a.787.787,0,1,0,0-1.573H172.987a.787.787,0,1,0,0,1.573Z" transform="translate(435.727 1857.744)" fill="#fff"/>
                <path d="M86.7,58.884a4.157,4.157,0,0,0-3.114.587l-8.2,5.321V35.274a4.732,4.732,0,0,0-4.8-4.671H65.562V28.162a.8.8,0,0,0-1.592,0V30.6H57.2V28.162a.8.8,0,0,0-1.592,0V30.6H48.975V28.162a.8.8,0,0,0-1.592,0V30.6H40.616V28.162a.8.8,0,0,0-1.592,0V30.6H34.755a4.751,4.751,0,0,0-3.362,1.357A4.637,4.637,0,0,0,30,35.274V82.606a4.777,4.777,0,0,0,4.755,4.769H70.583a4.815,4.815,0,0,0,4.8-4.769V74.586l12.75-8.273a4.072,4.072,0,0,0,1.794-4.188,4.117,4.117,0,0,0-3.23-3.241ZM64.721,35.53a1.391,1.391,0,1,1-1.408,1.391A1.4,1.4,0,0,1,64.721,35.53Zm-8.3,0a1.391,1.391,0,1,1-1.408,1.391,1.4,1.4,0,0,1,1.408-1.391Zm-8.3,0a1.391,1.391,0,1,1-1.408,1.391,1.4,1.4,0,0,1,1.408-1.391Zm-8.3,0a1.391,1.391,0,1,1-1.408,1.391,1.4,1.4,0,0,1,1.408-1.391ZM73.789,82.606a3.23,3.23,0,0,1-3.206,3.2H34.755a3.193,3.193,0,0,1-3.163-3.2V35.274a3.072,3.072,0,0,1,.926-2.2,3.147,3.147,0,0,1,2.237-.9h4.268v1.886a3.059,3.059,0,0,0-2.2,2.858,3,3,0,0,0,6,0,2.915,2.915,0,0,0-2.209-2.858V32.177h6.767v1.886a2.933,2.933,0,0,0-2.229,2.858,3,3,0,0,0,6.007,0,3.047,3.047,0,0,0-2.185-2.858V32.177H55.61v1.886a3.056,3.056,0,0,0-2.195,2.858,3,3,0,0,0,6,0A2.917,2.917,0,0,0,57.2,34.063V32.177H63.97v1.886a2.93,2.93,0,0,0-2.226,2.858,3,3,0,0,0,6.006,0,3.05,3.05,0,0,0-2.187-2.858V32.177h5.021a3.147,3.147,0,0,1,3.206,3.1V65.826L70.8,67.767a.781.781,0,0,0-.191,1.141h0a.8.8,0,0,0,1.065.174L83.512,61.4l.963,1.448L64.417,75.863l-.963-1.448,3.769-2.445a.781.781,0,0,0,.229-1.089.8.8,0,0,0-1.1-.226L61.918,73.53l-.024.018c-.02.014-.04.028-.059.044l-.018.017H49.665a.787.787,0,1,0,0,1.573H60.919l-.564,1.053c-.025,0-.049,0-.074,0H49.665a.787.787,0,1,0,0,1.573h9.849l-.921,1.718a.779.779,0,0,0,.021.774.8.8,0,0,0,.682.381h.021l6.729-.174c.016,0,.032,0,.049,0s.035,0,.052,0,.042-.009.062-.013l.046-.01a.8.8,0,0,0,.1-.038l.024-.013a.8.8,0,0,0,.075-.041l.008,0,7.326-4.754Zm-9.214-3.639-3.937.1,1.786-3.335Zm1.679-.34-.061-.092-.9-1.356L85.349,64.164l.963,1.448ZM87.62,64.713l-2.754-4.142A2.6,2.6,0,0,1,87,60.635a2.282,2.282,0,0,1,.527.347,2.507,2.507,0,0,1,.094,3.731Z" transform="translate(559 2094.625)" fill="#fff"/>
            </g>
        </symbol>

        <symbol id="receive" viewBox="0 0 60 60">
            <g transform="translate(-940.58 -2602.786)">
                <path d="M70.784,2.786H20.154a4.44,4.44,0,0,0-4.415,4.455v7.107L7.712,6.293a1.462,1.462,0,0,0-2.081,0,1.494,1.494,0,0,0,0,2.1L17.61,20.438,8.45,29.681l-.738-.7a1.463,1.463,0,0,0-2.081,0,1.5,1.5,0,0,0,0,2.1l6.878,6.9,0,1.337a15.427,15.427,0,0,0,3.232,9.432V58.33a4.44,4.44,0,0,0,4.415,4.455h50.63A4.44,4.44,0,0,0,75.2,58.33V24.467a1.472,1.472,0,1,0-2.944,0V58.33a1.48,1.48,0,0,1-1.472,1.485H40.057c.062-.055.122-.112.181-.172a4.26,4.26,0,0,0,.873-1.28,4.224,4.224,0,0,0,4.9-.805,4.32,4.32,0,0,0,.8-4.946,4.31,4.31,0,0,0,1.268-6.947L43.012,40.55a4.666,4.666,0,0,0,4.123-1.919l.048-.067a4.852,4.852,0,0,0-.993-6.7c-1.318-.989-3.1-2.333-5.308-4A18,18,0,0,0,30.1,24.247h-.02l-4.531,0-6.871-6.933V7.241a1.48,1.48,0,0,1,1.472-1.485H35.519V20.9a1.485,1.485,0,0,0,.909,1.372,1.461,1.461,0,0,0,1.6-.321l3.2-3.227,3.2,3.227a1.462,1.462,0,0,0,2.081,0l3.2-3.227,3.2,3.227a1.461,1.461,0,0,0,1.6.322,1.485,1.485,0,0,0,.909-1.372V5.756H70.784a1.48,1.48,0,0,1,1.472,1.485v5.345a1.472,1.472,0,1,0,2.944,0V7.241A4.44,4.44,0,0,0,70.784,2.786ZM18.682,58.33V51.871l4.809,4.853h0l3.063,3.09h-6.4A1.48,1.48,0,0,1,18.682,58.33ZM30.087,27.217H30.1a15.056,15.056,0,0,1,9.015,3.027c2.207,1.666,4,3.013,5.316,4a1.855,1.855,0,0,1,.374,2.563l-.048.067a1.727,1.727,0,0,1-2.34.437L36.772,33.64a1.692,1.692,0,0,0-2.251.367,1.729,1.729,0,0,0,.121,2.3L46,47.765a1.326,1.326,0,0,1,0,1.863,1.3,1.3,0,0,1-1.732.1l-5.7-5.752a1.471,1.471,0,0,0-.123-.11l-.582-.588a1.463,1.463,0,0,0-2.082,0,1.5,1.5,0,0,0,0,2.1l6.291,6.348c.065.066.133.128.2.189l1.661,1.676a1.326,1.326,0,0,1,0,1.863,1.3,1.3,0,0,1-1.847,0l-1.662-1.677c-.06-.068-.121-.136-.187-.2l-5.592-5.642a1.575,1.575,0,0,0-.124-.11l-.582-.588a1.462,1.462,0,0,0-2.081,0,1.494,1.494,0,0,0,0,2.1l6.4,6.457a1.329,1.329,0,0,1-.1,1.748,1.3,1.3,0,0,1-1.847,0l-1.858-1.875c-.06-.07-.122-.137-.187-.2l-3.539-3.572a1.576,1.576,0,0,0-.124-.11l-.582-.588a1.462,1.462,0,0,0-2.081,0,1.5,1.5,0,0,0,0,2.1l4.346,4.386a1.324,1.324,0,0,1-.1,1.747,1.3,1.3,0,0,1-1.847,0l-7.709-7.779v0L19.006,48a12.392,12.392,0,0,1-3.556-8.679l0-2.159L25.3,27.223ZM13.576,34.853l-3.044-3.071,9.16-9.243,3.044,3.072Zm38.9-17.537-1.726-1.742a1.463,1.463,0,0,0-2.081,0l-3.2,3.227-3.2-3.227a1.462,1.462,0,0,0-2.081,0l-1.727,1.742V5.756H52.475Zm0,0" transform="translate(936 2600.5)" fill="#fff" stroke="#ef2543" stroke-width="1"/>
                <path d="M384.891,299.656h-9.42a1.485,1.485,0,0,0,0,2.97h9.42a1.485,1.485,0,0,0,0-2.97Zm0,0" transform="translate(616.888 2345.682)" fill="#fff" stroke="#ef2543" stroke-width="1"/>
                <path d="M402.517,340.9H396.14a1.485,1.485,0,0,0,0,2.97h6.378a1.485,1.485,0,0,0,0-2.97Zm0,0" transform="translate(599.262 2310.562)" fill="#fff" stroke="#ef2543" stroke-width="1"/>
                <path d="M356.14,340.9a1.473,1.473,0,0,0-1.04.435,1.493,1.493,0,0,0,0,2.1,1.461,1.461,0,0,0,2.081,0,1.494,1.494,0,0,0,0-2.1A1.476,1.476,0,0,0,356.14,340.9Zm0,0" transform="translate(633.375 2310.565)" fill="#fff" stroke="#ef2543" stroke-width="1"/>
                <path d="M493.472,112.488a1.477,1.477,0,0,0-1.041.435,1.494,1.494,0,0,0,0,2.1,1.462,1.462,0,0,0,2.081,0,1.494,1.494,0,0,0,0-2.1A1.477,1.477,0,0,0,493.472,112.488Zm0,0" transform="translate(516.255 2505.053)" fill="#fff" stroke="#ef2543" stroke-width="1"/>
            </g>
        </symbol>

        <symbol id="delivery" viewBox="0 0 60 60">
            <g transform="translate(-1081.599 -2499.7)">
                <path d="M54.759,36.967a.992.992,0,0,0-.44.445l-5.25,10.613a.721.721,0,0,1-.875.366.73.73,0,0,1-.466-.892l1.521-5.383a1,1,0,0,0-.358-1.072A.976.976,0,0,0,47.774,41L39.057,46.61a1.255,1.255,0,0,1-1.032.155,1.272,1.272,0,0,1-.8-.669,1.3,1.3,0,0,1,.377-1.617l6.369-4.828a1,1,0,0,0,.3-1.217.982.982,0,0,0-1.114-.551l-10.309,2.4a1.477,1.477,0,0,1-1.155-.2,1.512,1.512,0,0,1-.66-.981,1.53,1.53,0,0,1,1.162-1.788l11.391-2.468a1,1,0,0,0-.03-1.953l-8.2-1.508a1.633,1.633,0,0,1-1.067-.7,1.662,1.662,0,0,1-.252-1.261,1.642,1.642,0,0,1,1.75-1.332l9.486.8a.973.973,0,0,0,.939-.5,1.006,1.006,0,0,0-.055-1.071l-3.773-5.338a1.381,1.381,0,0,1,.145-1.771,1.352,1.352,0,0,1,1.856-.063l6.231,5.512a.983.983,0,0,0,1.015.175l9.853-3.984L60.746,20l-9.292,3.757-1.416-1.252-3.55-19.38-.009,0a.96.96,0,0,0-1.139-.8L12.4,8.492a.985.985,0,0,0-.633.415L5.451,18.193a1,1,0,0,0-.157.745L8.1,34.276,2.359,31.954,1.627,33.8l9.853,3.984a.976.976,0,0,0,1.015-.175L18.726,32.1a1.352,1.352,0,0,1,1.856.063,1.38,1.38,0,0,1,.145,1.771l-3.772,5.338a1.006,1.006,0,0,0-.055,1.071.97.97,0,0,0,.939.5l9.486-.8a1.648,1.648,0,0,1,1.75,1.332,1.667,1.667,0,0,1-.252,1.261,1.633,1.633,0,0,1-1.067.7l-8.2,1.508a1,1,0,0,0-.03,1.953l11.391,2.468a1.529,1.529,0,0,1,1.162,1.788,1.513,1.513,0,0,1-.66.981,1.479,1.479,0,0,1-1.156.2l-10.308-2.4a.984.984,0,0,0-1.114.551,1,1,0,0,0,.3,1.216l6.369,4.829a1.3,1.3,0,0,1,.377,1.617,1.272,1.272,0,0,1-.8.669,1.254,1.254,0,0,1-1.031-.155l-8.718-5.608a.98.98,0,0,0-1.189.1,1,1,0,0,0-.222,1.184l1.971,3.984a1.238,1.238,0,0,1-.545,1.651,1.2,1.2,0,0,1-.929.067,1.213,1.213,0,0,1-.7-.618l-4.927-9.96a.992.992,0,0,0-.44-.445L2.434,45.932l-.882,1.782,5.618,2.84,4.78,9.664a3.163,3.163,0,0,0,4.278,1.441,3.245,3.245,0,0,0,1.426-4.325l-.38-.768,5.717,3.676a3.226,3.226,0,0,0,2.615.394,3.266,3.266,0,0,0,2.041-1.7,3.308,3.308,0,0,0-.958-4.1l-2.641-2,5.768,1.346a3.423,3.423,0,0,0,2.667-.471,3.488,3.488,0,0,0,1.524-2.264,3.523,3.523,0,0,0-2.343-4.016l3.7-.692c.033.083.057.167.1.249a3.235,3.235,0,0,0,4.656,1.3l6.528-4.2-.808,2.861a2.722,2.722,0,0,0,1.737,3.33,2.613,2.613,0,0,0,.843.139,2.706,2.706,0,0,0,2.418-1.5l5.1-10.316,5.618-2.84L60.67,33.98ZM38.622,11.688l-9.855,1.845L33.5,6.569l9.855-1.845ZM21.017,14.983l4.736-6.963,5.01-.938-4.736,6.963Zm4.8,1.127,1.973,10.773-5.812,1.089L20.006,17.2Zm-12.66-5.733,9.854-1.845-4.736,6.963L8.423,17.339ZM17.429,30.6l-5.777,5.111-1.385-.56-2.856-15.6L18.068,17.56l2.153,11.752a.983.983,0,0,0,.426.636,3.3,3.3,0,0,0-3.217.651Zm9.733,7.459-7.365.62,2.535-3.589a3.383,3.383,0,0,0-.355-4.337,3.279,3.279,0,0,0-.934-.652.894.894,0,0,0,.146.026.928.928,0,0,0,.18-.017l7.75-1.45a.985.985,0,0,0,.633-.415,1,1,0,0,0,.157-.745L27.757,15.747l10.657-1.994.435,2.375,1.938-.362-.54-2.948,4.736-6.964s2.489,11.339,2.662,14.538-1.97-1.742-1.97-1.742a3.315,3.315,0,0,0-4.548.153,3.383,3.383,0,0,0-.355,4.337l2.535,3.589-7.365-.62A3.617,3.617,0,0,0,32.1,29.034a3.657,3.657,0,0,0,.555,2.771A3.59,3.59,0,0,0,35,33.347l3.308.608-6.526,1.414a3.507,3.507,0,0,0-2.71,3.061,3.564,3.564,0,0,0-1.907-.371Zm8.046,6.681-8.47,1.586-1.937-.42,3.308-.608a3.586,3.586,0,0,0,2.344-1.543,3.65,3.65,0,0,0,.6-1.774,3.409,3.409,0,0,0,2.236.247l5.768-1.346-2.641,2a3.3,3.3,0,0,0-1.207,1.856Z" transform="translate(1080.448 2497.999)" fill="#fff" stroke="#3b3b3b" stroke-width="0.6"/>
                <path d="M7,8.972H8.971A4.959,4.959,0,0,1,13.9,3.992h.985V2H13.9A6.943,6.943,0,0,0,7,8.972Z" transform="translate(1080.368 2498)" fill="#ef2543" stroke="#3b3b3b" stroke-width="0.6"/>
                <path d="M51,59.98v1.992h.985A6.943,6.943,0,0,0,58.882,55H56.912a4.959,4.959,0,0,1-4.927,4.98Z" transform="translate(1079.721 2497.79)" fill="#ef2543" stroke="#3b3b3b" stroke-width="0.6"/>
                <path d="M48.985,56.98H48v1.992h.985A6.943,6.943,0,0,0,55.882,52H53.912A4.959,4.959,0,0,1,48.985,56.98Z" transform="translate(1079.765 2497.802)" fill="#ef2543" stroke="#3b3b3b" stroke-width="0.6"/>
            </g>
        </symbol>

        <symbol id="earning" viewBox="0 0 60 60">
            <g transform="translate(-1257 -2532)">
                <path d="M67.128,42.944c-1.154-1.645-3.113-2.046-5.24-1.076l-1.127.481a17.568,17.568,0,0,0,1.113-11.638,27.839,27.839,0,0,0-7.3-12.793.926.926,0,0,0-1.281-.054.86.86,0,0,0-.056,1.242A26.133,26.133,0,0,1,60.1,31.093a15.357,15.357,0,0,1-2.127,12.445L46.695,48.354l.009-1.235a.832.832,0,0,0,0-.093,5.587,5.587,0,0,0-4.868-4.92l-.023,0L31.781,40.984c-3.856-.532-4.849-2.772-10.071-4.05a18.4,18.4,0,0,1,1.438-9.3c1.985-4.772,5.869-9.408,11.253-13.443,2.007,1.38,10.96,1.551,12.963-.228,1.026.756,2.006,1.535,2.919,2.323a.926.926,0,0,0,1.28-.071.86.86,0,0,0-.074-1.241c-1-.864-2.076-1.717-3.2-2.541A3.073,3.073,0,0,0,47.2,9.318c2.838-4.173,3.663-6.9,2.523-8.336A1.619,1.619,0,0,0,47.552.658,1.49,1.49,0,0,1,45.814.6,3.342,3.342,0,0,0,42,.6a1.5,1.5,0,0,1-1.831,0,3.341,3.341,0,0,0-3.816,0,1.479,1.479,0,0,1-1.736.056,1.616,1.616,0,0,0-2.177.314C31.322,2.358,32.067,5,34.714,9.035a2.96,2.96,0,0,0-.461.3A6.219,6.219,0,0,0,28.982,7.4a6.8,6.8,0,0,1-4.509-1.034.924.924,0,0,0-1.258.24.862.862,0,0,0,.248,1.219,8.643,8.643,0,0,0,5.72,1.32,4.486,4.486,0,0,1,4.048,1.717q-.017.056-.031.113a16.026,16.026,0,0,0-2.874.3,8.533,8.533,0,0,0-5.9,3.661.864.864,0,0,0,.325,1.2.922.922,0,0,0,1.24-.315c1.653-2.739,5.687-3.073,7.289-3.094.007.019.015.038.022.058-5.718,4.277-9.7,9.046-11.837,14.184a20.288,20.288,0,0,0-1.617,9.595,19.442,19.442,0,0,0-2.632-.2v-.531a2.594,2.594,0,0,0-2.63-2.55H10.427a2.594,2.594,0,0,0-2.63,2.55V56.311a2.594,2.594,0,0,0,2.63,2.55h4.161a2.594,2.594,0,0,0,2.63-2.55v-.25l9.076,3.275a11.163,11.163,0,0,0,3.8.663H43.617a11.128,11.128,0,0,0,5.83-1.64C67.488,47.271,66.392,47.96,66.5,47.871a3.687,3.687,0,0,0,.631-4.927ZM45.664,12.924a20.242,20.242,0,0,1-9.852,0c-1.423-.349-1.01-2.808.518-2.437a18.213,18.213,0,0,0,8.815,0C46.648,10.122,47.109,12.57,45.664,12.924ZM33.785,2.218l.021.01a3.3,3.3,0,0,0,3.536-.159c1.544-.98,1.712.591,3.739.591a3.213,3.213,0,0,0,1.908-.591,1.5,1.5,0,0,1,1.832,0,3.317,3.317,0,0,0,3.551.157c.187.652-.236,2.595-2.923,6.475-1.335-.022-3.271,1.249-8.754.066-2.682-3.93-3.1-5.892-2.909-6.548Zm31.557,44.3L48.477,56.875a9.276,9.276,0,0,1-4.86,1.367H30.094a9.3,9.3,0,0,1-3.167-.553l-9.709-3.5V44.722a.907.907,0,0,0-1.813,0V56.311a.806.806,0,0,1-.818.793H10.427a.806.806,0,0,1-.818-.793V35.845a.806.806,0,0,1,.818-.793h4.161a.806.806,0,0,1,.818.793v4.769a.907.907,0,0,0,1.813,0v-2.48c7.5.056,9.183,3.887,14.32,4.592l.023,0,10.027,1.119a3.809,3.809,0,0,1,3.3,3.308l-.013,1.672H35.527a.879.879,0,1,0,0,1.758H45.778a.964.964,0,0,0,.362-.073l16.489-7.039c1.186-.511,2.267-.584,3,.461A1.963,1.963,0,0,1,65.342,46.514Z" transform="translate(1249.203 2532.001)" fill="#fff"/>
                <path d="M245.01,177a.893.893,0,0,0,.906-.879v-1.457a5.225,5.225,0,0,0,4.352-4.26,4.5,4.5,0,0,0-3.2-5.156c-.415-.142-.8-.278-1.149-.41v-5.6a3.778,3.778,0,0,1,1.763.751.926.926,0,0,0,1.276-.054.86.86,0,0,0-.052-1.242,5.7,5.7,0,0,0-2.987-1.229v-1.25a.907.907,0,0,0-1.813,0v1.321a6.848,6.848,0,0,0-.672.159,4.294,4.294,0,0,0-3,3.336,3.652,3.652,0,0,0,1.246,3.663,11.076,11.076,0,0,0,2.426,1.329v6.949a4.913,4.913,0,0,1-2.819-.948.924.924,0,0,0-1.255.254.863.863,0,0,0,.262,1.216,6.78,6.78,0,0,0,3.811,1.234v1.395A.893.893,0,0,0,245.01,177ZM242.8,163.307a1.943,1.943,0,0,1-.583-1.955,2.536,2.536,0,0,1,1.741-1.978c.05-.015.1-.027.15-.04v4.747A7.691,7.691,0,0,1,242.8,163.307Zm3.665,3.6a2.752,2.752,0,0,1,2.019,3.207,3.461,3.461,0,0,1-2.564,2.755v-6.153C246.092,166.777,246.272,166.84,246.461,166.9Z" transform="translate(1045.17 2394.871)" fill="#ef2543"/>
            </g>
        </symbol>

        <symbol id="quickview" viewBox="0 0 17.688 18.8">
            <path d="M1507.524,499.26l-2.991-3.278a8.018,8.018,0,0,0,1.8-5.078,7.67,7.67,0,1,0-7.667,7.9,7.432,7.432,0,0,0,4.392-1.43l3.025,3.315a.98.98,0,0,0,1.414.029A1.054,1.054,0,0,0,1507.524,499.26Zm-8.859-14.2A5.841,5.841,0,1,1,1493,490.9,5.761,5.761,0,0,1,1498.665,485.065Z" transform="translate(-1490.598 -482.604)" fill="currentColor" stroke="currentColor" stroke-width="0.8"/>
        </symbol>

        <symbol id="close" viewBox="0 0 24 24">
            <path d="M24 20.188l-8.315-8.209 8.2-8.282-3.697-3.697-8.212 8.318-8.31-8.203-3.666 3.666 8.321 8.24-8.206 8.313 3.666 3.666 8.237-8.318 8.285 8.203z"/>
        </symbol>

        <symbol id="undo" viewBox="0 0 24 24">
            <path d="M17.026 22.957c10.957-11.421-2.326-20.865-10.384-13.309l2.464 2.352h-9.106v-8.947l2.232 2.229c14.794-13.203 31.51 7.051 14.794 17.675z"/>
        </symbol>

        <symbol id="star" viewBox="0 0 13 13">
            <path d="M12.966,5.4a.7.7,0,0,0-.595-.5L8.619,4.553,7.135.93a.68.68,0,0,0-1.271,0L4.381,4.553.628,4.909a.7.7,0,0,0-.594.5.741.741,0,0,0,.2.766l2.836,2.6L2.236,12.61a.737.737,0,0,0,.269.744.663.663,0,0,0,.759.035L6.5,11.371l3.235,2.019a.665.665,0,0,0,.759-.035.737.737,0,0,0,.269-.744L9.927,8.766l2.836-2.6A.742.742,0,0,0,12.966,5.4Zm0,0" transform="translate(0 -0.492)"/>
        </symbol>

        <symbol id="download" viewBox="0 0 24 24">
            <path d="M24 12c0-6.627-5.373-12-12-12s-12 5.373-12 12 5.373 12 12 12 12-5.373 12-12zm-17 1h4v-8h2v8h4l-5 6-5-6z"/>
        </symbol>

        <symbol id="copy" viewBox="0 0 24 24">
            <path d="M18 6v-6h-18v18h6v6h18v-18h-6zm-12 10h-4v-14h14v4h-10v10zm16 6h-14v-14h14v14z"/>
        </symbol>

        <symbol id="facebook" viewBox="0 0 24 24"> 
            <path d="M19 0h-14c-2.761 0-5 2.239-5 5v14c0 2.761 2.239 5 5 5h14c2.762 0 5-2.239 5-5v-14c0-2.761-2.238-5-5-5zm-3 7h-1.924c-.615 0-1.076.252-1.076.889v1.111h3l-.238 3h-2.762v8h-3v-8h-2v-3h2v-1.923c0-2.022 1.064-3.077 3.461-3.077h2.539v3z"/>
        </symbol>

        <symbol id="messenger" viewBox="0 0 24 24">
            <path d="M19 24h-14c-2.761 0-5-2.239-5-5v-14c0-2.761 2.239-5 5-5h14c2.762 0 5 2.239 5 5v14c0 2.761-2.238 5-5 5zm-7-19.5c-4.418 0-8 3.316-8 7.407 0 2.332 1.163 4.411 2.981 5.769v2.824l2.724-1.495c.727.201 1.497.31 2.295.31 4.418 0 8-3.317 8-7.408s-3.582-7.407-8-7.407zm.795 9.975l-2.037-2.173-3.975 2.173 4.372-4.642 2.087 2.173 3.926-2.173-4.373 4.642z"/>
        </symbol>

        <symbol id="twitter" viewBox="0 0 24 24">
            <path d="M19 0h-14c-2.761 0-5 2.239-5 5v14c0 2.761 2.239 5 5 5h14c2.762 0 5-2.239 5-5v-14c0-2.761-2.238-5-5-5zm-.139 9.237c.209 4.617-3.234 9.765-9.33 9.765-1.854 0-3.579-.543-5.032-1.475 1.742.205 3.48-.278 4.86-1.359-1.437-.027-2.649-.976-3.066-2.28.515.098 1.021.069 1.482-.056-1.579-.317-2.668-1.739-2.633-3.26.442.246.949.394 1.486.411-1.461-.977-1.875-2.907-1.016-4.383 1.619 1.986 4.038 3.293 6.766 3.43-.479-2.053 1.08-4.03 3.199-4.03.943 0 1.797.398 2.395 1.037.748-.147 1.451-.42 2.086-.796-.246.767-.766 1.41-1.443 1.816.664-.08 1.297-.256 1.885-.517-.439.656-.996 1.234-1.639 1.697z"/>
        </symbol>

        <symbol id="whatsapp" viewBox="0 0 24 24">
            <path d="M12.036 5.339c-3.635 0-6.591 2.956-6.593 6.589-.001 1.483.434 2.594 1.164 3.756l-.666 2.432 2.494-.654c1.117.663 2.184 1.061 3.595 1.061 3.632 0 6.591-2.956 6.592-6.59.003-3.641-2.942-6.593-6.586-6.594zm3.876 9.423c-.165.463-.957.885-1.337.942-.341.051-.773.072-1.248-.078-.288-.091-.657-.213-1.129-.417-1.987-.858-3.285-2.859-3.384-2.991-.099-.132-.809-1.074-.809-2.049 0-.975.512-1.454.693-1.653.182-.2.396-.25.528-.25l.38.007c.122.006.285-.046.446.34.165.397.561 1.372.611 1.471.049.099.083.215.016.347-.066.132-.099.215-.198.33l-.297.347c-.099.099-.202.206-.087.404.116.198.513.847 1.102 1.372.757.675 1.395.884 1.593.983.198.099.314.083.429-.05.116-.132.495-.578.627-.777s.264-.165.446-.099 1.156.545 1.354.645c.198.099.33.149.38.231.049.085.049.482-.116.945zm3.088-14.762h-14c-2.761 0-5 2.239-5 5v14c0 2.761 2.239 5 5 5h14c2.762 0 5-2.239 5-5v-14c0-2.761-2.238-5-5-5zm-6.967 19.862c-1.327 0-2.634-.333-3.792-.965l-4.203 1.103 1.125-4.108c-.694-1.202-1.059-2.566-1.058-3.964.002-4.372 3.558-7.928 7.928-7.928 2.121.001 4.112.827 5.609 2.325s2.321 3.491 2.32 5.609c-.002 4.372-3.559 7.928-7.929 7.928z"/>
        </symbol>

        <symbol id="instagram" viewBox="0 0 24 24">
            <path d="M12 2.163c3.204 0 3.584.012 4.85.07 3.252.148 4.771 1.691 4.919 4.919.058 1.265.069 1.645.069 4.849 0 3.205-.012 3.584-.069 4.849-.149 3.225-1.664 4.771-4.919 4.919-1.266.058-1.644.07-4.85.07-3.204 0-3.584-.012-4.849-.07-3.26-.149-4.771-1.699-4.919-4.92-.058-1.265-.07-1.644-.07-4.849 0-3.204.013-3.583.07-4.849.149-3.227 1.664-4.771 4.919-4.919 1.266-.057 1.645-.069 4.849-.069zm0-2.163c-3.259 0-3.667.014-4.947.072-4.358.2-6.78 2.618-6.98 6.98-.059 1.281-.073 1.689-.073 4.948 0 3.259.014 3.668.072 4.948.2 4.358 2.618 6.78 6.98 6.98 1.281.058 1.689.072 4.948.072 3.259 0 3.668-.014 4.948-.072 4.354-.2 6.782-2.618 6.979-6.98.059-1.28.073-1.689.073-4.948 0-3.259-.014-3.667-.072-4.947-.196-4.354-2.617-6.78-6.979-6.98-1.281-.059-1.69-.073-4.949-.073zm0 5.838c-3.403 0-6.162 2.759-6.162 6.162s2.759 6.163 6.162 6.163 6.162-2.759 6.162-6.163c0-3.403-2.759-6.162-6.162-6.162zm0 10.162c-2.209 0-4-1.79-4-4 0-2.209 1.791-4 4-4s4 1.791 4 4c0 2.21-1.791 4-4 4zm6.406-11.845c-.796 0-1.441.645-1.441 1.44s.645 1.44 1.441 1.44c.795 0 1.439-.645 1.439-1.44s-.644-1.44-1.439-1.44z"/>
        </symbol>

        <symbol id="pinterest" viewBox="0 0 24 24">
            <path d="M19 0h-14c-2.761 0-5 2.239-5 5v14c0 2.761 2.239 5 5 5h14c2.762 0 5-2.239 5-5v-14c0-2.761-2.238-5-5-5zm-7 20c-.825 0-1.62-.125-2.369-.357.326-.531.813-1.402.994-2.098l.499-1.901c.261.498 1.023.918 1.833.918 2.414 0 4.152-2.219 4.152-4.976 0-2.643-2.157-4.62-4.933-4.62-3.452 0-5.286 2.317-5.286 4.841 0 1.174.625 2.634 1.624 3.1.151.07.232.039.268-.107l.222-.907c.019-.081.01-.15-.056-.23-.331-.4-.595-1.138-.595-1.825 0-1.765 1.336-3.472 3.612-3.472 1.965 0 3.341 1.339 3.341 3.255 0 2.164-1.093 3.663-2.515 3.663-.786 0-1.374-.649-1.185-1.446.226-.951.663-1.977.663-2.664 0-.614-.33-1.127-1.012-1.127-.803 0-1.448.831-1.448 1.943 0 .709.239 1.188.239 1.188s-.793 3.353-.938 3.977c-.161.691-.098 1.662-.028 2.294-2.974-1.165-5.082-4.06-5.082-7.449 0-4.418 3.582-8 8-8s8 3.582 8 8-3.582 8-8 8z"/>
        </symbol>

        <symbol id="plus" viewBox="0 0 24 24">
            <path d="M24 10h-10v-10h-4v10h-10v4h10v10h4v-10h10z"/>
        </symbol>

        <symbol id="minus" viewBox="0 0 24 24">
            <path d="M0 10h24v4h-24z"/>
        </symbol>

        <symbol id="resell" viewBox="0 0 17.5 17.5">
            <path id="add_to_resell" d="M1780.481,36.44H1777.6l-3.73-5.359c-.292-.419-.518-.839-1.224-.813,0,0-.518-.093-1.094.813l-4.207,5.359h-2.318a.768.768,0,0,0-.773.773h0a10.559,10.559,0,0,0,2.318,6.959,7.724,7.724,0,0,0,12.364,0,10.561,10.561,0,0,0,2.318-6.959h0A.768.768,0,0,0,1780.481,36.44Zm-7.836-4.418c.017-.025,3.147,4.418,3.147,4.418h-6.6Zm.109,13.7c-3.67,0-6.734-3.6-6.955-7.732h13.909C1779.488,42.122,1776.424,45.719,1772.754,45.719Z" transform="translate(-1764.004 -30.01)" stroke-width="0.5"/>
        </symbol>

        <symbol id="arrowCircleRight" viewBox="0 0 24 24">
            <path d="M12 0c-6.627 0-12 5.373-12 12s5.373 12 12 12 12-5.373 12-12-5.373-12-12-12zm-1.218 19l-1.782-1.75 5.25-5.25-5.25-5.25 1.782-1.75 6.968 7-6.968 7z"/>
        </symbol>

        <symbol id="arrowCircleLeft" viewBox="0 0 24 24">
            <path  d="M12,0A12,12,0,1,0,24,12,12,12,0,0,0,12,0ZM10.782,19,9,17.25,14.25,12,9,6.75,10.782,5l6.968,7Z" transform="translate(24 24) rotate(180)"/>
        </symbol>

        <symbol id="play_2" viewBox="0 0 35 40">
            <path d="M20,0,40,35H0Z" transform="translate(35) rotate(90)"/>
        </symbol>

        <symbol id="play_3" viewBox="0 0 23 28">
            <path id="icon" d="M12.292,2.807a2,2,0,0,1,3.417,0L26.15,19.96A2,2,0,0,1,24.441,23H3.559A2,2,0,0,1,1.85,19.96Z" transform="translate(23) rotate(90)"/>
        </symbol>

        <symbol id="mapmarker" viewBox="0 0 24 24">
            <path d="M12 0c-4.198 0-8 3.403-8 7.602 0 4.198 3.469 9.21 8 16.398 4.531-7.188 8-12.2 8-16.398 0-4.199-3.801-7.602-8-7.602zm0 11c-1.657 0-3-1.343-3-3s1.343-3 3-3 3 1.343 3 3-1.343 3-3 3z"/>
        </symbol>

        <symbol id="envelope" viewBox="0 0 24 24">
            <path d="M12 12.713l-11.985-9.713h23.971l-11.986 9.713zm-5.425-1.822l-6.575-5.329v12.501l6.575-7.172zm10.85 0l6.575 7.172v-12.501l-6.575 5.329zm-1.557 1.261l-3.868 3.135-3.868-3.135-8.11 8.848h23.956l-8.11-8.848z"/>
        </symbol>

        <symbol id="phone" viewBox="0 0 24 24">
            <path d="M20 22.621l-3.521-6.795c-.008.004-1.974.97-2.064 1.011-2.24 1.086-6.799-7.82-4.609-8.994l2.083-1.026-3.493-6.817-2.106 1.039c-7.202 3.755 4.233 25.982 11.6 22.615.121-.055 2.102-1.029 2.11-1.033z"/>
        </symbol>

        <symbol id="paper-plane" viewBox="0 0 35 35">
            <g id="icon" transform="translate(0 0)">
                <g id="Group_1281" data-name="Group 1281" transform="translate(3.692 0)">
                <g id="Group_1280" data-name="Group 1280">
                    <path id="Path_3433" data-name="Path 3433" d="M84.967.09a.684.684,0,0,0-.687.005L71.752,7.5a.684.684,0,1,0,.7,1.177l8.989-5.316L64.693,20.738,56.365,18.19l10.868-6.427a.684.684,0,0,0-.7-1.177L54.335,17.8a.684.684,0,0,0,.148,1.242l9.945,3.043,4.388,7.986a.163.163,0,0,0,.014.021.682.682,0,0,0,1.063.138L74.939,25.3l9.49,2.9a.684.684,0,0,0,.884-.654V.683A.684.684,0,0,0,84.967.09ZM68.854,22.509a.684.684,0,0,0-.122.389V27.08l-3-5.453L78.994,7.87ZM70.1,28.12v-4.3l3.349,1.025Zm13.846-1.492L70.51,22.518,83.945,3.124Z" transform="translate(-53.999 0)"/>
                </g>
                </g>
                <g id="Group_1283" data-name="Group 1283" transform="translate(3.692 23.563)">
                <g id="Group_1282" data-name="Group 1282">
                    <path id="Path_3434" data-name="Path 3434" d="M61.549,344.849a.684.684,0,0,0-.967,0L54.2,351.231a.684.684,0,0,0,.967.967l6.382-6.382A.684.684,0,0,0,61.549,344.849Z" transform="translate(-53.999 -344.648)"/>
                </g>
                </g>
                <g id="Group_1285" data-name="Group 1285" transform="translate(0 32.064)">
                <g id="Group_1284" data-name="Group 1284">
                    <path id="Path_3435" data-name="Path 3435" d="M2.74,469.2a.684.684,0,0,0-.967,0L.2,470.773a.684.684,0,1,0,.967.967l1.572-1.572A.684.684,0,0,0,2.74,469.2Z" transform="translate(0 -469.001)"/>
                </g>
                </g>
                <g id="Group_1287" data-name="Group 1287" transform="translate(8.586 33.597)">
                <g id="Group_1286" data-name="Group 1286">
                    <path id="Path_3436" data-name="Path 3436" d="M126.747,491.61a.683.683,0,1,0,.2.483A.689.689,0,0,0,126.747,491.61Z" transform="translate(-125.58 -491.41)"/>
                </g>
                </g>
                <g id="Group_1289" data-name="Group 1289" transform="translate(10.292 28.51)">
                <g id="Group_1288" data-name="Group 1288">
                    <path id="Path_3437" data-name="Path 3437" d="M155.082,417.206a.684.684,0,0,0-.967,0l-3.381,3.381a.684.684,0,0,0,.967.967l3.381-3.38A.684.684,0,0,0,155.082,417.206Z" transform="translate(-150.534 -417.006)"/>
                </g>
                </g>
                <g id="Group_1291" data-name="Group 1291" transform="translate(21.95 28.25)">
                <g id="Group_1290" data-name="Group 1290">
                    <path id="Path_3438" data-name="Path 3438" d="M325.61,413.411a.684.684,0,0,0-.967,0l-3.39,3.39a.684.684,0,0,0,.967.967l3.39-3.39A.684.684,0,0,0,325.61,413.411Z" transform="translate(-321.053 -413.211)"/>
                </g>
                </g>
                <g id="Group_1293" data-name="Group 1293" transform="translate(18.216 9.119)">
                <g id="Group_1292" data-name="Group 1292">
                    <path id="Path_3439" data-name="Path 3439" d="M267.6,133.58a.683.683,0,1,0,.2.484A.689.689,0,0,0,267.6,133.58Z" transform="translate(-266.43 -133.38)"/>
                </g>
                </g>
            </g>
        </symbol>

        <symbol id="grid" viewBox="0 0 24 24">
            <path d="M29.23,48.019H14.983a1.063,1.063,0,1,1,0-2.126H29.229a1.063,1.063,0,0,1,0,2.126Z" transform="translate(-8.292 -24.864)"/>
            <path d="M29.23,29.188H14.983a1.063,1.063,0,1,1,0-2.126H29.229a1.063,1.063,0,0,1,0,2.126Z" transform="translate(-8.292 -12.689)"/>
            <path d="M29.23,10.357H14.983a1.063,1.063,0,0,1,0-2.126H29.229a1.063,1.063,0,0,1,0,2.126Z" transform="translate(-8.292 -0.515)"/>
            <circle cx="1.428" cy="1.428" r="1.428" transform="translate(0 7.434)"/>
            <circle cx="1.428" cy="1.428" r="1.428" transform="translate(0 14.008)"/>
            <circle cx="1.428" cy="1.428" r="1.428" transform="translate(0 20.582)"/>
        </symbol>

        <symbol id="fire" viewBox="0 0 24 24">
            <path d="M8.625 0c.61 7.189-5.625 9.664-5.625 15.996 0 4.301 3.069 7.972 9 8.004 5.931.032 9-4.414 9-8.956 0-4.141-2.062-8.046-5.952-10.474.924 2.607-.306 4.988-1.501 5.808.07-3.337-1.125-8.289-4.922-10.378zm4.711 13c3.755 3.989 1.449 9-1.567 9-1.835 0-2.779-1.265-2.769-2.577.019-2.433 2.737-2.435 4.336-6.423z"/>
        </symbol>

        <symbol id="fashion" viewBox="0 0 24 24">
            <path d="M15.968 11l6.032 11.463s-2.112.804-5.554 1.249l-1.446-3.712.432 3.828c-1.062.105-2.228.172-3.479.172-1.219 0-2.352-.063-3.385-.164l.432-3.836-1.45 3.721c-3.458-.443-5.55-1.258-5.55-1.258l6.128-11.463h7.84zm-7.823-1l-1.162-4.09-2.44.794-1.543-2.429 5-4.275s2.039 1 4 1c1.961 0 3.978-1 3.978-1l5.022 4.275-1.543 2.429-2.44-.794-1.076 4.09h-7.796zm.362-8.709s1.497.709 3.493.709c1.996 0 3.546-.707 3.546-.707s-1.028 2.707-3.546 2.707-3.493-2.709-3.493-2.709z"/>
        </symbol>

        <symbol id="party" viewBox="0 0 24 24">
            <path d="M13.5 20c1.104 0 2 .896 2 2s-.896 2-2 2-2-.896-2-2 .896-2 2-2zm-10.502 4c-.598 0-2.429-1.754-2.747-4.304-.424-3.414 2.124-5.593 4.413-5.87.587-1.895 2.475-4.684 6.434-4.77.758-1.982 3.409-4.507 6.84-3.186 1.647.634 3.101 2.101 3.705 3.737.231.624-.71.965-.937.347-.51-1.378-1.737-2.615-3.127-3.151-2.577-.99-4.695.731-5.422 2.298 1.107.12 2.092.455 2.755.889.909.594 1.473 1.558 1.508 2.577.031.889-.33 1.687-.991 2.187-.654.496-1.492.643-2.298.404-.966-.286-1.748-1.076-2.143-2.169-.287-.793-.384-1.847-.178-2.921-3.064.185-4.537 2.306-5.075 3.742 1.18.102 2.211.574 2.831 1.012.959.676 1.497 1.6 1.513 2.599.015.859-.363 1.664-1.011 2.155-.608.46-1.535.599-2.363.348-.961-.289-1.7-1.041-2.079-2.118-.255-.723-.375-1.776-.204-2.919-1.631.361-3.512 1.995-3.178 4.685.18 1.448 1.008 2.888 2.015 3.502.43.261.242.926-.261.926zm17.308-10.026l1.205 2.225 2.489.459-1.744 1.833.333 2.509-2.283-1.092-2.283 1.092.333-2.509-1.744-1.833 2.489-.459 1.205-2.225zm-14.85.822c-.202 1.024-.128 1.993.113 2.678.347.984.966 1.355 1.424 1.492.604.183 1.175.036 1.472-.187.388-.294.624-.808.614-1.34-.011-.673-.398-1.313-1.09-1.801-.545-.385-1.479-.803-2.533-.842zm6.373-4.716c-.226 1.018-.11 1.99.099 2.569.287.79.828 1.356 1.486 1.55.501.148 1.014.06 1.411-.242.398-.301.615-.795.596-1.355-.025-.705-.409-1.353-1.056-1.775-.511-.334-1.448-.657-2.536-.747zm-7.329-10.08l1.468 2.711 3.032.558-2.124 2.234.405 3.057-2.781-1.331-2.781 1.331.405-3.057-2.124-2.234 3.032-.558 1.468-2.711zm17 0c1.38 0 2.5 1.12 2.5 2.5s-1.12 2.5-2.5 2.5-2.5-1.12-2.5-2.5 1.12-2.5 2.5-2.5z"/>
        </symbol>

        <symbol id="travel" viewBox="0 0 24 24">
            <path d="M7.488 24h-.001c-.266 0-.487-.216-.487-.487v-.513c-1.104 0-2-.896-2-2v-13c0-1.104.896-2 2-2h2v-5c0-.552.448-1 1-1h4c.552 0 1 .448 1 1v5h2c1.105 0 2 .896 2 2v13c0 1.104-.895 2-2 2v.488c0 .283-.228.512-.512.512h-.001c-.265 0-.487-.214-.487-.487v-.513h-8v.488c0 .283-.229.512-.512.512zm9.012-13c.277 0 .5-.224.5-.5s-.223-.5-.5-.5h-9c-.276 0-.5.224-.5.5s.224.5.5.5h.507c-.072 1.037.389 1.936.996 2.352l-.003 1.476 3.529 3.543 2.834-2.823-3.529-3.542-1.289-.003c-.124-.364-.335-.721-.578-1.003h6.533zm-4.851 3.271l1.821 1.821-.354.353-1.821-1.82.354-.354zm.683 1.744l-.353.354-1.214-1.214.354-.353 1.213 1.213zm-.153-2.274l1.821 1.821-.354.353-1.82-1.821.353-.353zm-1.572-.726c-.102.283-.331.462-.606.539.042.416.551.6.85.303.279-.276.142-.754-.244-.842zm-1.361-2.015c.334.257.614.638.763 1.002l-1.003-.002-.001.682-.018-.022c-.332-.401-.529-.99-.477-1.66h.736zm4.254-9h-3c-.276 0-.5.224-.5.5v3.5h4v-3.5c0-.276-.224-.5-.5-.5z"/>
        </symbol>

        <symbol id="electronics" viewBox="0 0 12 15">
            <path d="M241,438.989h.894v2.139H241Z" transform="translate(-235.447 -426.128)"/>
            <path d="M0,0,.886.007.9,2.164.018,2.157Z" transform="translate(7.854 12.286) rotate(-45)"/>
            <path d="M0,0,2.157.018,2.164.9.007.886Z" transform="translate(1.972 13.177) rotate(-45)"/>
            <path d="M63.917,145.472h-6.7l-2.65,4.3h12Z" transform="translate(-54.567 -141.21)"/>
            <path d="M214.55,1.553h-.866V0h-.894V1.553h-.866v1.83h2.626Z" transform="translate(-207.237)"/>
            <path d="M211.924,322.872a1.313,1.313,0,0,0,2.626,0v-.538h-2.626v.538Z" transform="translate(-207.237 -312.891)"/>
        </symbol>

        <symbol id="sports" viewBox="0 0 14 15">
            <path d="M3530.844,14.717a1.069,1.069,0,0,1,0-1.369l2.365-2.7-1.941-2.219a1.068,1.068,0,0,1,0-1.368l3.387-3.871a.84.84,0,0,1,1.446.684V5.807h2.568a.913.913,0,0,1,.847.967.913.913,0,0,1-.847.968h-3.415a.913.913,0,0,1-.846-.968V6.207l-1.343,1.535,1.941,2.219a1.067,1.067,0,0,1,0,1.368l-2.963,3.388a.775.775,0,0,1-1.2,0Zm-5.08,0a1.068,1.068,0,0,1,0-1.369l4.472-5.111a1.991,1.991,0,0,0,.433.874l.6.684-4.307,4.922a.773.773,0,0,1-1.2,0Zm1.445-8.427a.456.456,0,0,1-.423-.483.456.456,0,0,1,.423-.484h2.145a.488.488,0,0,1,0,.967Zm2.365-1.251a1.069,1.069,0,0,1,0-1.369l2.329-2.66a.769.769,0,0,1,1.069-.122l1.565,1.238a1.681,1.681,0,0,0-.48.376l-.827.946-.619-.51-1.838,2.1a.774.774,0,0,1-1.2,0Zm-3.211-.684a.457.457,0,0,1-.424-.484.457.457,0,0,1,.424-.484h2.145a.457.457,0,0,1,.424.484.457.457,0,0,1-.424.484Zm8.891-2.9a1.282,1.282,0,1,1,2.541,0,1.282,1.282,0,1,1-2.541,0Zm-8.044.967a.456.456,0,0,1-.423-.483.456.456,0,0,1,.423-.484h2.145a.457.457,0,0,1,.424.484.456.456,0,0,1-.424.483Z" transform="translate(-3525.516)"/>
        </symbol>

        <symbol id="foods" viewBox="0 0 14 15">
            <path d="M3537.974,14.439V7.576h-.316a.52.52,0,0,1-.406-.2.627.627,0,0,1-.128-.466l.788-6.4a.557.557,0,0,1,.534-.511.566.566,0,0,1,.539.589l.015,13.85a.515.515,0,1,1-1.026,0Zm-11.925,0V5.774A1.706,1.706,0,0,1,3525,4.162V.713a.351.351,0,1,1,.7,0V2.828h.513V.713a.351.351,0,1,1,.7,0V2.828h.513V.713a.351.351,0,1,1,.7,0V4.162a1.706,1.706,0,0,1-1.049,1.612v8.665a.515.515,0,1,1-1.026,0Zm1.726-3.143V6.2a2.536,2.536,0,0,0,1.049-2.086V2.654a5.463,5.463,0,0,1,3.623-1.4,5.586,5.586,0,0,1,4.394,2.215l-.009.068-.373,3.028a4.222,4.222,0,0,0-4.012-3.49,4.325,4.325,0,0,0-4.117,4.5,4.131,4.131,0,1,0,8.233.044,1.372,1.372,0,0,0,.162.258,1.237,1.237,0,0,0,.55.4v2.778a5.509,5.509,0,0,1-9.5.244Zm1.255-3.72a3.431,3.431,0,1,1,6.834,0,3.431,3.431,0,1,1-6.834,0Z" transform="translate(-3525)"/>
        </symbol>

        <symbol id="health" viewBox="0 0 14 15">
            <path d="M3532.409,15V11.338a2.509,2.509,0,0,1,.823-1.876,6.125,6.125,0,0,1,2.7-1.365c.88,0,.559.965-.145,1.531l-1.777,1.382.492.7,1.777-1.382a3.471,3.471,0,0,0,1.163-2.058c.016-.088.232-4.254,1.069-4.254.4.038.489,1.107.492,2.279a28.471,28.471,0,0,1-.14,2.906c-.131,1.02-1.135,2.021-2.1,3a12.15,12.15,0,0,0-1.345,1.477A2.331,2.331,0,0,0,3534.87,15Zm-3.282,0a2.331,2.331,0,0,0-.542-1.321,12.15,12.15,0,0,0-1.345-1.477c-.968-.976-1.972-1.978-2.1-3-.041-.36-.115-1.336-.131-2.338-.025-1.371.025-2.8.484-2.848.837,0,1.053,4.166,1.069,4.254a3.47,3.47,0,0,0,1.163,2.058l1.777,1.382.492-.7-1.777-1.382c-.7-.565-1.025-1.531-.145-1.531a5.371,5.371,0,0,1,2.6,1.283,2.538,2.538,0,0,1,.919,1.975V15Zm2.6-6.887a20.826,20.826,0,0,0-1.722-1.4c-1.353-1.02-2.522-1.9-2.522-3.607A3.009,3.009,0,0,1,3530.357,0a2.1,2.1,0,0,0,3.282,0,3.009,3.009,0,0,1,2.872,3.105c0,1.662-1.057,2.468-2.395,3.488-.556.424-1.187.906-1.849,1.52l-.269.249Zm-.962-3.689h.821V5.3h.82V4.424h.821V3.545h-.821V2.666h-.82v.879h-.821Z" transform="translate(-3525)"/>
        </symbol>

        <symbol id="dubbleStar" viewBox="0 0 30 30">
            <path d="M3539.416,28.966A1.03,1.03,0,1,1,3540.446,30,1.032,1.032,0,0,1,3539.416,28.966Zm9.612.675-8.556-5.433-8.556,5.433a.905.905,0,0,1-1.02-.033.915.915,0,0,1-.346-.964l2.5-9.857-7.725-6.5a.913.913,0,0,1,.524-1.61l10.035-.657,3.743-9.448a.907.907,0,0,1,1.688,0l3.743,9.448,10.092.657a.913.913,0,0,1,.522,1.612l-7.779,6.5,2.5,9.854a.915.915,0,0,1-.346.964.906.906,0,0,1-1.02.033Zm-8.071-7.285,7.114,4.517-2.078-8.192a.914.914,0,0,1,.3-.927l6.467-5.4-8.39-.546a.907.907,0,0,1-.785-.573l-3.112-7.854-3.112,7.854a.907.907,0,0,1-.785.573l-8.345.546,6.424,5.4a.914.914,0,0,1,.3.925l-2.078,8.192,7.114-4.517a.908.908,0,0,1,.97,0Zm2.3-.7-2.782-1.767-2.783,1.767a.909.909,0,0,1-1.365-1l.813-3.2-2.533-2.113a.913.913,0,0,1,.521-1.612l3.286-.214,1.218-3.072a.906.906,0,0,1,1.688,0l1.217,3.072,3.285.214a.913.913,0,0,1,.521,1.612l-2.531,2.113.812,3.2a.915.915,0,0,1-.346.964.907.907,0,0,1-1.02.033Zm-3.368-6.93a.907.907,0,0,1-.785.573l-1.582.1,1.219,1.018a.914.914,0,0,1,.3.927l-.391,1.543,1.34-.851a.9.9,0,0,1,.97,0l1.339.85-.391-1.542a.915.915,0,0,1,.3-.927l1.219-1.018-1.581-.1a.908.908,0,0,1-.785-.573l-.586-1.479Zm-12.343,5.927a.909.909,0,1,1,1.145.586.906.906,0,0,1-1.145-.586Zm24.77.583a.905.905,0,1,1,.281.045A.9.9,0,0,1,3552.313,21.237ZM3547.44,6.828a.916.916,0,0,1-.2-1.275.9.9,0,0,1,1.268-.2.915.915,0,0,1,.2,1.274.9.9,0,0,1-1.268.2Zm-15.148-.2a.915.915,0,0,1,.2-1.274.9.9,0,0,1,1.268.2.915.915,0,0,1-.2,1.274.9.9,0,0,1-1.268-.2Z" transform="translate(-3525)"/>
        </symbol>

        <symbol id="like" viewBox="0 0 30 30">
            <path id="Union_64" data-name="Union 64" d="M3541.815,30a.863.863,0,0,1-.213-.027l-6.166-1.541A2.64,2.64,0,0,1,3533.028,30h-3.634a.88.88,0,0,1-.879-.878v-.88h-2.637a.879.879,0,0,1-.878-.878v-12.3a.879.879,0,0,1,.878-.878h8.788a38.536,38.536,0,0,0,5.386-1.868c1.424-.713,2.644-3.919,2.644-6.042a.879.879,0,0,1,.879-.878,4.124,4.124,0,0,1,4.077,4.739,21.565,21.565,0,0,1-.961,4.05h3.915a2.635,2.635,0,0,1,1.963,4.394,2.635,2.635,0,0,1-1.269,4.3,2.635,2.635,0,0,1-1.758,3.515A2.637,2.637,0,0,1,3547.089,30Zm-.978-16.117a35.765,35.765,0,0,1-5.174,1.841V26.677l6.261,1.564h5.165a.878.878,0,1,0,0-1.757h-1.757a.879.879,0,1,1,0-1.759h3.516a.878.878,0,1,0,0-1.757h-3.516a.879.879,0,1,1,0-1.759h5.273a.878.878,0,1,0,0-1.757h-5.273a.879.879,0,1,1,0-1.759h5.273a.879.879,0,1,0,0-1.759h-5.273a.877.877,0,0,1-.786-1.271,14.219,14.219,0,0,0,1.366-4.8,2.37,2.37,0,0,0-1.526-2.579C3544.092,9.671,3542.858,12.872,3540.837,13.883Zm-10.563,14.358h2.754a.879.879,0,0,0,.878-.878V15.937h-3.632Zm-3.517-1.757h1.758V15.937h-1.758Zm25.606-14.942a.879.879,0,0,1,0-1.759h1.759a.879.879,0,0,1,0,1.759Zm-17.579,0a.879.879,0,0,1,0-1.759h1.759a.879.879,0,0,1,0,1.759Zm14.641-5.852a.877.877,0,0,1,0-1.242l1.244-1.244a.879.879,0,0,1,1.242,1.244l-1.242,1.242a.875.875,0,0,1-1.244,0Zm-11.187,0-1.244-1.242a.879.879,0,0,1,1.244-1.244l1.242,1.244a.878.878,0,1,1-1.242,1.242Zm5.335-2.938V.878a.879.879,0,0,1,1.758,0V2.754a.879.879,0,0,1-1.758,0Z" transform="translate(-3524.999)"/>
        </symbol>

        <symbol id="quote" viewBox="0 0 32 27">
            <path d="M3543.667,27V13.5A13.431,13.431,0,0,1,3557,0V4.5a8.955,8.955,0,0,0-8.889,9H3557V27ZM3525,27V13.5A13.431,13.431,0,0,1,3538.333,0V4.5a8.955,8.955,0,0,0-8.889,9h8.889V27Z" transform="translate(-3525)"/>
        </symbol>

        <symbol id="angleLeft" viewBox="0 0 8 14">
            <path d="M7,0a.62.62,0,0,0-.45.2L.186,6.862a.689.689,0,0,0,0,.943.616.616,0,0,0,.9,0L7,1.609l5.914,6.2a.616.616,0,0,0,.9,0,.689.689,0,0,0,0-.943L7.45.2A.62.62,0,0,0,7,0Z" transform="translate(0 14) rotate(-90)"/>
        </symbol>

        <symbol id="angleRight" viewBox="0 0 8 14">
            <path d="M27,48a.62.62,0,0,1-.45-.2l-6.364-6.667a.689.689,0,0,1,0-.943.616.616,0,0,1,.9,0L27,46.39l5.914-6.2a.616.616,0,0,1,.9,0,.689.689,0,0,1,0,.943L27.45,47.8A.62.62,0,0,1,27,48Z" transform="translate(-40 34) rotate(-90)"/>
        </symbol>

        <symbol id="angleTop" viewBox="0 0 24 24">
            <path d="M0 16.67l2.829 2.83 9.175-9.339 9.167 9.339 2.829-2.83-11.996-12.17z"/>
        </symbol>

        <symbol id="fastDelivery" viewBox="0 0 45 45">
            <path d="M2.526,27.386H10.6a2.53,2.53,0,0,1,2.526,2.528v9.291h3.019a6.936,6.936,0,0,1-.189-2.167h0a20.266,20.266,0,0,1,1.909-8.864,9.511,9.511,0,0,1,2.955-3.562,6.466,6.466,0,0,1-1.73-4.579,5.917,5.917,0,1,1,11.831,0,.7.7,0,0,1-.7.7h-.474a4.91,4.91,0,0,1,.067.8,4.842,4.842,0,0,1-3.89,4.743,11.753,11.753,0,0,1,.347,3.033l1.739,1.5,4.232.342,4.882-1.614a1.478,1.478,0,0,1,1.394,0,1.239,1.239,0,0,1,.434,1.04v3.629a.7.7,0,0,1-.7.7h-.83L38.7,39.3a.7.7,0,0,1-1.34.388L35.974,34.9H33.992c2.466,7.519,1.059,12.538-1.1,17.618h1.253l5.221-5.838-1.1-3.814a.7.7,0,0,1,1.34-.388l1.056,3.648a7.014,7.014,0,0,1,6.932,5.437.7.7,0,0,1-.523.836l-.99.228A5.335,5.335,0,0,1,35.761,55l-.781.18a.911.911,0,0,1-.674-.038.8.8,0,0,1-.393-.535,6.935,6.935,0,0,1-.112-.694H19.217a5.942,5.942,0,0,1-11.76,0H6.8a.955.955,0,0,1-.724-.263.894.894,0,0,1-.247-.678,7.905,7.905,0,0,1,.286-1.889,10.879,10.879,0,0,1,.771-7.033,1.836,1.836,0,0,1-.833-1.537V40.6H2.526A2.53,2.53,0,0,1,0,38.072V29.914a2.53,2.53,0,0,1,2.526-2.528Zm36.144,29.1a3.911,3.911,0,0,0,2.974.5h0A3.951,3.951,0,0,0,44.7,52.946l-7.564,1.741a3.92,3.92,0,0,0,1.535,1.794ZM35.181,53.7l10.847-2.5a5.616,5.616,0,0,0-5.552-3.679l-5.314,5.941Q35.169,53.588,35.181,53.7ZM24.648,41.553a6.208,6.208,0,0,1,.2,2.1v2.631H27.4v-3.61c0-4.081-2.228-4.809-3.227-4.929H17.34a2.956,2.956,0,0,0,.633,2,3.238,3.238,0,0,0,2.419.725l2.5,0a1.68,1.68,0,0,1,1.752,1.074Zm.2,6.129v1.665h4.973a1.987,1.987,0,0,0-.481-1.193,1.72,1.72,0,0,0-1.241-.473ZM17.371,36.354h6.342a26.038,26.038,0,0,0,.668-2.581l-1.928-1.251a2.878,2.878,0,0,1-1.5-2.65,2.465,2.465,0,0,1,1.536-2.018,2.517,2.517,0,0,1,2.34.258,8.234,8.234,0,0,0-.337-1.768,4.915,4.915,0,0,1-.882-.174,5.777,5.777,0,0,1-1.628-.645C20.637,26.327,17.684,28.93,17.371,36.354Zm12.1-17.018a4.515,4.515,0,0,0-8.991.7,4.735,4.735,0,0,0,2.606,4.495V20.859a1.387,1.387,0,0,1,1.4-1.52l.063,0Zm-1.053,2.2a3.472,3.472,0,0,0-.093-.8h-3.74c-.043,0-.074.01-.1.014a.829.829,0,0,0-.007.114v4.079a3.45,3.45,0,0,0,.5.037h0a3.442,3.442,0,0,0,3.432-3.441Zm.9,10.778-1.652-.134a.7.7,0,0,1-.4-.166l-2.981-2.564h0a1.385,1.385,0,0,0-.9-.376,1.073,1.073,0,0,0-1.059.936,1.538,1.538,0,0,0,.874,1.344l3.322,2.156h2.791v-1.2Zm2.947.238-1.552-.126v1.083h1.8c.234,0,.291-.194.3-.357A.554.554,0,0,0,32.272,32.55Zm1.65-.481A2.014,2.014,0,0,1,34.18,33.5s0,0,0,.006h3.378V30.861l-3.639,1.2ZM32.52,34.9H26.328a.7.7,0,0,1-.38-.112l-.316-.2c-.152.671-.325,1.324-.513,1.941,1.422.42,3.68,1.776,3.68,6.151v3.68a2.91,2.91,0,0,1,1.552.834,3.4,3.4,0,0,1,.872,2.156h1.407A20.507,20.507,0,0,0,32.52,34.9ZM31.371,52.518c.258-.593.506-1.183.74-1.776H24.87c-.938,0-1.414-.427-1.414-1.27V44.353h-5.5a.7.7,0,0,1,0-1.395h5.5a3.157,3.157,0,0,0-.107-.911c-.035-.093-.066-.173-.449-.173l-2.5,0a4.5,4.5,0,0,1-3.429-1.16c-.034-.036-.067-.074-.1-.112H7.443v1.917a.448.448,0,0,0,.441.442h6.942a.7.7,0,0,1,0,1.395H8.294A8.233,8.233,0,0,0,7.276,48.66a7.568,7.568,0,0,1,11.526-.9,7.682,7.682,0,0,1,2.192,4.76ZM13.337,57.606A4.6,4.6,0,0,0,17.8,53.915H8.874A4.6,4.6,0,0,0,13.337,57.606ZM8.082,52.52H19.594a6.255,6.255,0,0,0-6.17-5.614A6.187,6.187,0,0,0,7.49,51.34l-.008.024a6.436,6.436,0,0,0-.23,1.155ZM1.394,38.072a1.134,1.134,0,0,0,1.132,1.133h9.2V35.6H1.394Zm0-3.862H11.731V32.727H1.394Zm0-2.878H11.731V29.914A1.134,1.134,0,0,0,10.6,28.781H2.526a1.134,1.134,0,0,0-1.132,1.133Z" transform="translate(0 -14)"/>
        </symbol>

        <symbol id="return" viewBox="0 0 45 45">
            <path d="M46.242,28.757a16.921,16.921,0,0,0-16.9-16.9H21.366V6.878L8.321,16.009,21.366,25.14V20.783H29.34a7.974,7.974,0,0,1,1.355,15.832v-6.1H9.329v6.219H0v8.929H9.329v6.219H30.695V45.6A16.924,16.924,0,0,0,46.242,28.757ZM2.71,42.95V39.44H9.329V42.95Zm25.276,6.219H12.038V33.221H27.985Zm2.71-6.284v-3.53A10.683,10.683,0,0,0,29.34,18.074H18.657v1.863l-5.611-3.927,5.611-3.927v2.482H29.34a14.192,14.192,0,0,1,1.355,28.32Z" transform="translate(0 -6.878)" stroke-width="1.2"/>
            <path  d="M169.366,24.65a1.431,1.431,0,0,0-1.018-.424l-1.181,0,.16-.164a1.369,1.369,0,1,0-1.932-1.939l-1.949,1.942-1.43-1.436a1.36,1.36,0,0,0-.967-.4h0a1.37,1.37,0,0,0-1.222,1.986l-1.342,0h0a1.44,1.44,0,0,0-1.44,1.438l0,1.586a.32.32,0,0,0,.32.32h.473v5.709a1.442,1.442,0,0,0,1.44,1.44h8.284a1.442,1.442,0,0,0,1.44-1.44V27.552h.47a.32.32,0,0,0,.32-.319l0-1.564A1.431,1.431,0,0,0,169.366,24.65Zm-3.52-2.076a.729.729,0,0,1,1.027,1.036l-.595.608H164.2Zm-5.315.5a.724.724,0,0,1,.515-.213h0a.725.725,0,0,1,.515.215l1.133,1.137-2.078-.019-.089-.089a.729.729,0,0,1,0-1.031Zm1.17,10.985h-2.432a.8.8,0,0,1-.8-.8V27.552H161.7Zm0-7.149h-4.029l0-1.266a.8.8,0,0,1,.8-.8h0l3.225.006Zm2.845,7.149h-2.209l0-6.51h2.209Zm0-7.149h-2.209V24.854l2.209,0Zm3.8,6.348a.8.8,0,0,1-.8.8H165.19l0-6.51h3.161Zm.79-6.348h-3.951V24.86l3.153.006a.8.8,0,0,1,.8.8Z" transform="translate(-143.131 6.108)" stroke-width="0.3"/>
        </symbol>

        <symbol id="payment" viewBox="0 0 45 45">
            <path d="M-6089.155,44.467l-.04-.015a53.549,53.549,0,0,1-5.281-2.7,6.221,6.221,0,0,0-3.21-1.153v.253a.879.879,0,0,1-.88.878h-2.45v.76a.88.88,0,0,1-.88.878h-5.226a.88.88,0,0,1-.88-.878V31.411a.879.879,0,0,1,.88-.878h8.135a7.033,7.033,0,0,1,5.491-3.293,6.947,6.947,0,0,1,5.6,2.577l6.731,2.286a.122.122,0,0,1,.023.008,4.016,4.016,0,0,1,2.487,2.448l6.124-1.694c2.244-.766,4.142-.067,4.952,1.826a.256.256,0,0,0,.011.026c.979,2.512-.949,4.189-2.243,4.786-.023.011-.046.02-.071.029l-13.536,4.846a7,7,0,0,1-2.912.624A7.878,7.878,0,0,1-6089.155,44.467Zm-8.531-12.706v7.08a7.9,7.9,0,0,1,4.088,1.39,51.083,51.083,0,0,0,5.1,2.607,5.7,5.7,0,0,0,4.378-.075l.035-.015.04-.015,13.529-4.844c.389-.185,1.889-1.015,1.312-2.522-.558-1.283-1.809-1.165-2.762-.84l-6.6,1.829c-.016.072-.034.143-.054.213a3.451,3.451,0,0,1-1.649,2.083,3.455,3.455,0,0,1-1.685.44,3.51,3.51,0,0,1-.954-.133l-.026-.008-7.889-2.5a.878.878,0,0,1-.572-1.1.878.878,0,0,1,1.1-.572l7.875,2.5a1.7,1.7,0,0,0,1.291-.155,1.7,1.7,0,0,0,.814-1.027,1.971,1.971,0,0,0-1.435-2.327l-6.985-2.371a.877.877,0,0,1-.466-.372,5.077,5.077,0,0,0-4.3-2.02A5.427,5.427,0,0,0-6097.686,31.76Zm-8.557,9.854h3.469V32.291h-3.469Zm5.227-1.637h1.571V32.291h-1.571Zm7.149-4.5a.791.791,0,0,1-.166-.049.9.9,0,0,1-.15-.081.775.775,0,0,1-.135-.109.941.941,0,0,1-.109-.133.853.853,0,0,1-.081-.153.863.863,0,0,1-.049-.162.934.934,0,0,1-.018-.173.9.9,0,0,1,.018-.17.893.893,0,0,1,.049-.166.955.955,0,0,1,.081-.152,1.036,1.036,0,0,1,.109-.133.949.949,0,0,1,.135-.109.9.9,0,0,1,.15-.081.9.9,0,0,1,.166-.049.863.863,0,0,1,.343,0,.915.915,0,0,1,.164.049.892.892,0,0,1,.152.081.91.91,0,0,1,.133.109.812.812,0,0,1,.109.133.852.852,0,0,1,.082.152.9.9,0,0,1,.05.166.9.9,0,0,1,.017.17.934.934,0,0,1-.017.173.866.866,0,0,1-.05.162.771.771,0,0,1-.082.153.753.753,0,0,1-.109.133.747.747,0,0,1-.133.109.892.892,0,0,1-.152.081.805.805,0,0,1-.164.049.814.814,0,0,1-.171.018A.809.809,0,0,1-6093.866,35.478Zm5.462-7.464-16.726-16.726a.873.873,0,0,1,0-1.243l9.788-9.788a.879.879,0,0,1,1.243,0l2.981,2.982,3.538-1.266a7.473,7.473,0,0,1,5.739-.09l.038.015a53.374,53.374,0,0,1,5.281,2.7,6.228,6.228,0,0,0,3.211,1.153V5.494a.877.877,0,0,1,.878-.878h2.451v-.76a.879.879,0,0,1,.878-.878h5.227a.879.879,0,0,1,.878.878V14.938a.878.878,0,0,1-.878.878h-8.136a7.029,7.029,0,0,1-5.49,3.293c-.25,0-.492-.011-.723-.031l-8.937,8.935a.844.844,0,0,1-.606.233A.926.926,0,0,1-6088.4,28.014Zm-1.381-3.868,2,2,2-2a3.81,3.81,0,0,0-2-.566A3.817,3.817,0,0,0-6089.786,24.146Zm5.272-1.266,2.008-2.007a5.61,5.61,0,0,1-.93-4.455l-2.969-1.007a4.984,4.984,0,0,1-1.3,2.267,5,5,0,0,1-3.542,1.465,5,5,0,0,1-3.542-1.465,5.017,5.017,0,0,1,0-7.087,5.019,5.019,0,0,1,2.63-1.383,3.446,3.446,0,0,1,1.432-1.513,3.455,3.455,0,0,1,1.184-.4l-1.9-1.9a5.534,5.534,0,0,1-3.27,1.058,5.531,5.531,0,0,1-3.27-1.058L-6100,7.4a5.532,5.532,0,0,1,1.058,3.27,5.535,5.535,0,0,1-1.058,3.27l8.944,8.943a5.563,5.563,0,0,1,3.269-1.057A5.563,5.563,0,0,1-6084.514,22.88Zm3.274-3.273.989-.989a6.824,6.824,0,0,1-1.55-.84A3.864,3.864,0,0,0-6081.24,19.607Zm-12.312-7.772a3.258,3.258,0,0,0,0,4.6,3.257,3.257,0,0,0,4.6,0,3.237,3.237,0,0,0,.875-1.591l-1.757-.6-.024-.008a3.891,3.891,0,0,1-2.634-3.11A3.292,3.292,0,0,0-6093.552,11.836Zm3.674-2.6a1.7,1.7,0,0,0-.812,1.024v0s0,0,0,0a1.973,1.973,0,0,0,1.435,2.325l6.989,2.371a.882.882,0,0,1,.484.4c.012.017.087.117.106.143a5.035,5.035,0,0,0,3.256,1.783h0a6.41,6.41,0,0,0,.918.064,5.429,5.429,0,0,0,4.191-2.764V7.508a7.923,7.923,0,0,1-4.089-1.39,50.859,50.859,0,0,0-5.1-2.607,5.7,5.7,0,0,0-4.378.075l-.035.015s-.006,0-.009,0-.02.008-.03.012l-2.787,1,3.244,3.242a0,0,0,0,0,0,0l.054.055,6.264,1.985a.876.876,0,0,1,.572,1.1.877.877,0,0,1-1.1.573l-7.876-2.5a1.713,1.713,0,0,0-.458-.063A1.708,1.708,0,0,0-6089.877,9.233Zm21.655,4.826h3.467V4.735h-3.467Zm-3.33,0h1.571V6.372h-1.571Zm-31.714-3.391,2,2a3.79,3.79,0,0,0,.565-2,3.783,3.783,0,0,0-.565-2Zm6.542-6.542a3.781,3.781,0,0,0,2,.566,3.8,3.8,0,0,0,2-.566l-2-2Zm19.25,8.468a.849.849,0,0,1-.164-.049.892.892,0,0,1-.152-.081.949.949,0,0,1-.135-.109.847.847,0,0,1-.109-.135,1.011,1.011,0,0,1-.081-.152.844.844,0,0,1-.049-.164.919.919,0,0,1-.019-.172.9.9,0,0,1,.019-.17.893.893,0,0,1,.049-.166,1.091,1.091,0,0,1,.081-.152.909.909,0,0,1,.109-.133.949.949,0,0,1,.135-.109.8.8,0,0,1,.152-.081.853.853,0,0,1,.164-.051.923.923,0,0,1,.343,0,.9.9,0,0,1,.166.051.847.847,0,0,1,.15.081.861.861,0,0,1,.133.109.753.753,0,0,1,.109.133.85.85,0,0,1,.081.152.9.9,0,0,1,.052.166.9.9,0,0,1,.015.17.916.916,0,0,1-.015.172.851.851,0,0,1-.052.164.8.8,0,0,1-.081.152.711.711,0,0,1-.109.135.861.861,0,0,1-.133.109.958.958,0,0,1-.15.081.9.9,0,0,1-.166.049.816.816,0,0,1-.172.018A.815.815,0,0,1-6077.473,12.593Z" transform="translate(6108.251 0.25)" stroke-width="0.5"/>
        </symbol>

        <symbol id="support" viewBox="0 0 45 45">
            <path d="M58.047,31.963,53.869,30.57l-1.5-3a9.626,9.626,0,0,0,2.605-5.092l.187-1.121h1.6A2.64,2.64,0,0,0,59.4,18.721V13.184a13.184,13.184,0,1,0-26.367,0v5.537a2.641,2.641,0,0,0,1.758,2.486v1.03a2.64,2.64,0,0,0,2.637,2.637H38.2a9.535,9.535,0,0,0,1.474,2.283c.124.143.254.282.387.417l-1.5,3-4.178,1.392A12.955,12.955,0,0,0,26,44.121a.879.879,0,0,0,.879.879H65.551a.879.879,0,0,0,.879-.879A12.955,12.955,0,0,0,58.047,31.963Zm-.406-13.242a.88.88,0,0,1-.879.879H55.42c.223-1.731.372-3.572.432-5.386,0-.051,0-.1,0-.151h1.783ZM35.668,19.6a.88.88,0,0,1-.879-.879V14.063h1.784q0,.138.009.277v.009h0c.062,1.764.208,3.558.427,5.25H35.668Zm1.758,3.516a.88.88,0,0,1-.879-.879v-.879h.721l.187,1.121c.036.213.08.425.13.636ZM36.548,12.3H34.822a11.426,11.426,0,0,1,22.785,0H55.881A8.9,8.9,0,0,0,47,3.516H45.428A8.9,8.9,0,0,0,36.548,12.3Zm8.88-7.031H47a7.147,7.147,0,0,1,7.124,7.155c0,.277,0,.517-.007.737,0,0,0,.006,0,.009l-1.1-.157a14.123,14.123,0,0,1-7.94-3.97.879.879,0,0,0-.621-.257,7.951,7.951,0,0,0-6.113,2.892A7.145,7.145,0,0,1,45.428,5.273ZM39.407,23.115a50.237,50.237,0,0,1-1.055-8.53l1.183-1.577a6.186,6.186,0,0,1,4.575-2.451,15.9,15.9,0,0,0,8.66,4.2l1.294.185c-.086,1.836-.263,3.678-.516,5.372v0c-.081.545-.144.9-.306,1.874a7.465,7.465,0,0,1-5.3,6,6.915,6.915,0,0,1-7.763-3.32h1.792a2.641,2.641,0,0,0,2.486,1.758h1.758a2.637,2.637,0,0,0,0-5.273H44.457a2.638,2.638,0,0,0-2.487,1.758Zm4.976,6.857a8.816,8.816,0,0,0,3.269.074L46.1,31.688Zm.508,2.994L42.1,35.914a33.487,33.487,0,0,1-1.968-4.563l1.047-2.094ZM51.1,28.959l1.2,2.391a33.478,33.478,0,0,1-1.968,4.564l-2.984-2.984Zm-7.52-4.965a.879.879,0,0,1,.879-.879h1.758a.879.879,0,1,1,0,1.758H44.457A.88.88,0,0,1,43.578,23.994ZM27.793,43.242a11.107,11.107,0,0,1,7.146-9.612l3.7-1.233a35.233,35.233,0,0,0,2.5,5.426l0,.009h0a35.242,35.242,0,0,0,2.406,3.674l1.081,1.736Zm18.422-.783-1.192-1.914q-.02-.032-.043-.062A33.51,33.51,0,0,1,43,37.524l3.134-3.315,3.3,3.3a33.475,33.475,0,0,1-1.987,2.97C47.407,40.54,47.468,40.449,46.215,42.459Zm1.583.783,1.081-1.736A35.228,35.228,0,0,0,51.3,37.8l.013-.023,0,0a35.2,35.2,0,0,0,2.475-5.38l3.7,1.233a11.107,11.107,0,0,1,7.146,9.612H47.8Z" transform="translate(-25.7 0.3)" stroke-width="0.6"/>

        </symbol>

        <symbol id="gridTwo" viewBox="0 0 22 16">
            <path id="Path_21225" data-name="Path 21225" d="M29.23,48.019H14.983a1.063,1.063,0,1,1,0-2.126H29.229a1.063,1.063,0,0,1,0,2.126Z" transform="translate(-8.292 -32.298)"/>
            <path id="Path_21226" data-name="Path 21226" d="M29.23,29.188H14.983a1.063,1.063,0,1,1,0-2.126H29.229a1.063,1.063,0,0,1,0,2.126Z" transform="translate(-8.292 -20.123)"/>
            <path id="Path_21227" data-name="Path 21227" d="M29.23,10.357H14.983a1.063,1.063,0,0,1,0-2.126H29.229a1.063,1.063,0,0,1,0,2.126Z" transform="translate(-8.292 -7.949)"/>
            <circle id="Ellipse_56" data-name="Ellipse 56" cx="1.428" cy="1.428" r="1.428"/>
            <circle id="Ellipse_57" data-name="Ellipse 57" cx="1.428" cy="1.428" r="1.428" transform="translate(0 6.574)"/>
            <circle id="Ellipse_58" data-name="Ellipse 58" cx="1.428" cy="1.428" r="1.428" transform="translate(0 13.148)"/>
        </symbol>
        
        <symbol id="eye" viewBox="0 0 24.8 15.5">
            <path id="eye" d="M12405.15,9329.959a.777.777,0,0,1,0-.918c.21-.286,5.22-7.042,11.617-7.042s11.407,6.756,11.618,7.042a.78.78,0,0,1,0,.918c-.211.285-5.221,7.04-11.618,7.04S12405.36,9330.244,12405.15,9329.959Zm1.616-.46c1.207,1.465,5.288,5.948,10,5.948s8.795-4.48,10-5.947c-1.209-1.467-5.29-5.949-10-5.949S12407.972,9328.031,12406.767,9329.5Zm5.347,0a4.655,4.655,0,1,1,4.654,4.654A4.659,4.659,0,0,1,12412.113,9329.5Zm1.551,0a3.1,3.1,0,1,0,3.1-3.1A3.108,3.108,0,0,0,12413.664,9329.5Z" transform="translate(-12404.727 -9321.749)"/>
        </symbol>
        
        <symbol id="phone_2" viewBox="0 0 16 16">
            <path d="M4.261,11.745C.048,7.46,0,4.045,0,4.011,0,3.433,2.646,0,3.573,0a1.221,1.221,0,0,1,.91.514C4.507.543,6.794,3.74,6.643,4.6c-.073.417-.358.656-.923,1.13-.094.079-.314.264-.47.408a6.612,6.612,0,0,0,.358.881,7.307,7.307,0,0,0,3.372,3.371,6.646,6.646,0,0,0,.88.359c.143-.156.328-.375.4-.468.478-.568.715-.852,1.132-.926.864-.139,4.061,2.136,4.09,2.16a1.222,1.222,0,0,1,.515.91C16,13.354,12.567,16,11.989,16,11.955,16,8.54,15.952,4.261,11.745ZM1.07,4.071c.037.445.405,3.32,3.943,6.921,3.584,3.52,6.454,3.9,6.916,3.938h0a14.4,14.4,0,0,0,2.966-2.51c-.021-.019-.052-.048-.1-.084a18.726,18.726,0,0,0-3.241-1.908c-.085.075-.308.341-.476.541a5.376,5.376,0,0,1-.761.809.526.526,0,0,1-.4.091,6.058,6.058,0,0,1-1.408-.515A8.377,8.377,0,0,1,4.647,7.487a6.082,6.082,0,0,1-.515-1.409.533.533,0,0,1,.091-.4A5.361,5.361,0,0,1,5.03,4.92a6.5,6.5,0,0,0,.542-.486A18.9,18.9,0,0,0,3.666,1.2c-.036-.042-.065-.073-.086-.1A14.423,14.423,0,0,0,1.07,4.071Zm13.33,3.4A5.874,5.874,0,0,0,8.534,1.6V.533a6.941,6.941,0,0,1,6.933,6.934Zm-2.667,0a3.2,3.2,0,0,0-3.2-3.2V3.2A4.272,4.272,0,0,1,12.8,7.467Z"/>
        </symbol>
	</defs>
</svg>