<svg xmlns="http://www.w3.org/2000/svg" width="22" height="20" viewBox="0 0 22 20">
  <path id="cart" d="M20.081,8H17.092L11.915.44a1.033,1.033,0,0,0-.82-.44.921.921,0,0,0-.83.43L5.038,7.994,1.939,8A1.882,1.882,0,0,0,0,9.823a1.641,1.641,0,0,0,.08.53L2.4,18.1a2.776,2.776,0,0,0,2.619,1.9H16.952a2.814,2.814,0,0,0,2.669-1.929l2.309-7.714a.846.846,0,0,0,.04-.17l.03-.23a.859.859,0,0,1-.01-.16A1.877,1.877,0,0,0,20.081,8Zm-9-5.236L14.663,8h-7.2Zm6.627,14.679a.806.806,0,0,1-.79.54H5.058a.733.733,0,0,1-.76-.5L2.059,10c1.329-.01,13.024,0,17.882,0Z" transform="translate(0 0.005)" fill="#ee7676"/>
</svg>
