<svg xmlns="http://www.w3.org/2000/svg" width="19.997" height="16" viewBox="0 0 19.997 16">
  <g id="category" transform="translate(0)">
    <path id="Category_icon" data-name="Category icon" d="M6.59,13.679H4.79V2.821a.586.586,0,0,0-.6-.571H3a.586.586,0,0,0-.6.571V13.679H.6a.6.6,0,0,0-.552.353.552.552,0,0,0,.13.622l2.995,3.429a.62.62,0,0,0,.847,0l2.995-3.429a.553.553,0,0,0,.128-.622.6.6,0,0,0-.553-.353Zm8.75-5.257H9.819a.586.586,0,0,0-.6.571v1.143a.586.586,0,0,0,.6.571H15.34a.586.586,0,0,0,.6-.571V8.993a.586.586,0,0,0-.6-.571Zm1.771,4.572H9.819a.586.586,0,0,0-.6.571v1.143a.586.586,0,0,0,.6.571h7.292a.586.586,0,0,0,.6-.571V13.565a.586.586,0,0,0-.6-.572ZM19.4,3.85H9.819a.586.586,0,0,0-.6.571V5.564a.586.586,0,0,0,.6.571H19.4a.586.586,0,0,0,.6-.571V4.421a.586.586,0,0,0-.6-.571Z" transform="translate(-0.003 -2.25)" fill="#fff"/>
  </g>
</svg>
