<svg xmlns="http://www.w3.org/2000/svg" width="16" height="16" viewBox="0 0 16 16">
  <g id="copy" transform="translate(1 1)">
    <path id="Path_452" data-name="Path 452" d="M14.781,13.5h5.764a1.281,1.281,0,0,1,1.281,1.281v5.764a1.281,1.281,0,0,1-1.281,1.281H14.781A1.281,1.281,0,0,1,13.5,20.544V14.781A1.281,1.281,0,0,1,14.781,13.5Z" transform="translate(-7.825 -7.825)" fill="none" stroke="#ee7676" stroke-linecap="round" stroke-linejoin="round" stroke-width="2"/>
    <path id="Path_453" data-name="Path 453" d="M4.921,11.325h-.64A1.281,1.281,0,0,1,3,10.044V4.281A1.281,1.281,0,0,1,4.281,3h5.764a1.281,1.281,0,0,1,1.281,1.281v.64" transform="translate(-3 -3)" fill="none" stroke="#ee7676" stroke-linecap="round" stroke-linejoin="round" stroke-width="2"/>
  </g>
</svg>
