<svg xmlns="http://www.w3.org/2000/svg" width="18" height="17" viewBox="0 0 18 17">
  <g id="messege" transform="translate(-619.654 -1388.538)">
    <path id="Path_286" data-name="Path 286" d="M-.218,16a.816.816,0,0,1-.548-.216.764.764,0,0,1-.188-.819l1.541-4.18V1.774A2.76,2.76,0,0,1,3.311-1H14.266A2.76,2.76,0,0,1,17,1.79v9.984a2.755,2.755,0,0,1-2.715,2.782H3.616l-3.545,1.4A.944.944,0,0,1-.218,16ZM14.25.545H3.327A1.206,1.206,0,0,0,2.153,1.759v9.165a.744.744,0,0,1-.047.263l-.994,2.681,2.058-.811A.741.741,0,0,1,3.46,13h10.8a1.2,1.2,0,0,0,1.166-1.213V1.774A1.19,1.19,0,0,0,14.25.545ZM17,11.773Z" transform="translate(620.657 1389.538)" fill="#ee7676"/>
    <path id="Path_287" data-name="Path 287" d="M15.5,7.5h-8a1,1,0,0,1,0-2h8a1,1,0,0,1,0,2Z" transform="translate(618.003 1387)" fill="#ee7676"/>
    <path id="Path_288" data-name="Path 288" d="M12.5,12.5h-5a1,1,0,0,1,0-2h5a1,1,0,0,1,0,2Z" transform="translate(618.003 1387)" fill="#ee7676"/>
  </g>
</svg>
