<svg id="Wishlist" xmlns="http://www.w3.org/2000/svg" width="18" height="16" viewBox="0 0 18 16">
  <path id="Bg" d="M14.769,1.236a4.2,4.2,0,0,0-5.824-.124L8,2.053l-.808-.817a4.2,4.2,0,0,0-5.824-.124.955.955,0,0,0-.128.124,4.226,4.226,0,0,0,0,5.973l.808.817L8,14l5.952-5.973.808-.817a4.219,4.219,0,0,0,.008-5.973Z" transform="translate(1 1.001)" fill="none"/>
  <path id="border" d="M8,15H8a.846.846,0,0,1-.589-.24L.5,7.775A5.144,5.144,0,0,1,.5.52,1.413,1.413,0,0,1,.653.36,5.135,5.135,0,0,1,4.236-1,5.071,5.071,0,0,1,7.763.52L8,.76c.2-.2.376-.376.393-.392A5.119,5.119,0,0,1,15.511.52a.213.213,0,0,1,.041.048,5.136,5.136,0,0,1-.049,7.2L8.581,14.751A.788.788,0,0,1,8,15ZM4.122.6a3.424,3.424,0,0,0-2.34.92l-.106.1a3.58,3.58,0,0,0,0,5.04L8,13.047l6.333-6.392a3.57,3.57,0,0,0,0-5.032c-.016-.016-.025-.032-.041-.04A3.448,3.448,0,0,0,9.53,1.52c-.074.072-.941.944-.941.944A.846.846,0,0,1,8,2.7H8a.846.846,0,0,1-.589-.24l-.826-.832A3.414,3.414,0,0,0,4.2.6Z" transform="translate(1 1.001)" fill="#ee7676"/>
</svg>
