<svg id="wishlisted" xmlns="http://www.w3.org/2000/svg" width="20" height="18" viewBox="0 0 20 18">
  <path id="Bg" d="M16.616,1.413a4.668,4.668,0,0,0-6.552-.142C10.018,1.315,9,2.346,9,2.346l-.909-.933A4.668,4.668,0,0,0,1.54,1.271a1.082,1.082,0,0,0-.144.142,4.883,4.883,0,0,0,0,6.826l.909.933L9,16l6.7-6.826.909-.933a4.875,4.875,0,0,0,.009-6.826Z" transform="translate(1 1.001)" fill="#ee7676"/>
  <path id="border" d="M9,17H9a.934.934,0,0,1-.655-.27L.664,8.872A5.838,5.838,0,0,1,.664.71,1.581,1.581,0,0,1,.836.53,5.665,5.665,0,0,1,4.818-1,5.6,5.6,0,0,1,8.736.71L9,.98c.218-.225.418-.423.436-.441A5.638,5.638,0,0,1,17.345.71a.239.239,0,0,1,.045.054,5.83,5.83,0,0,1-.055,8.1L9.645,16.72A.871.871,0,0,1,9,17ZM4.691.8a3.779,3.779,0,0,0-2.6,1.035l-.118.117a4.063,4.063,0,0,0,0,5.67L9,14.8l7.036-7.191a4.052,4.052,0,0,0,0-5.661c-.018-.018-.027-.036-.045-.045A3.8,3.8,0,0,0,10.7,1.835C10.618,1.916,9.654,2.9,9.654,2.9A.934.934,0,0,1,9,3.167H9a.934.934,0,0,1-.655-.27l-.918-.936A3.771,3.771,0,0,0,4.782.8Z" transform="translate(1 1.001)" fill="#ee7676"/>
</svg>
