<svg xmlns="http://www.w3.org/2000/svg" width="16" height="13" viewBox="0 0 16 13">
  <g id="dashboard" transform="translate(0 -52.499)">
    <path id="Path_430" data-name="Path 430" d="M203.577,123.687a.622.622,0,0,0-.8-.077c-.945.657-5.683,3.958-6.192,4.477a1.96,1.96,0,0,0,0,2.731,1.87,1.87,0,0,0,2.679,0c.509-.519,3.747-5.351,4.391-6.314A.653.653,0,0,0,203.577,123.687Zm-5.209,6.221a.623.623,0,0,1-.893,0,.653.653,0,0,1,0-.91c.2-.2,1.543-1.178,3.2-2.351C199.523,128.335,198.564,129.706,198.368,129.908Z" transform="translate(-190.003 -68.758)" fill="#aaa"/>
    <path id="Path_431" data-name="Path 431" d="M2.871,63.647l-.769.385a7.028,7.028,0,0,1-.42-5.805l.881.433a.607.607,0,0,0,.269.063.621.621,0,0,0,.562-.363.646.646,0,0,0-.292-.852l-.87-.428a6.717,6.717,0,0,1,5.114-3.274v.961a.623.623,0,1,0,1.245,0v-.961a6.514,6.514,0,0,1,2.141.579.616.616,0,0,0,.824-.319.646.646,0,0,0-.311-.845,7.82,7.82,0,0,0-8.911,1.674A8.318,8.318,0,0,0,1.35,65.215a.618.618,0,0,0,.518.284.608.608,0,0,0,.273-.065L3.417,64.8a.646.646,0,0,0,.287-.854A.616.616,0,0,0,2.871,63.647Z" transform="translate(0 0)" fill="#aaa"/>
    <path id="Path_432" data-name="Path 432" d="M393.134,191.866a.631.631,0,1,0-1.151.52,6.8,6.8,0,0,1-.272,6.124l-.814-.387a.631.631,0,1,0-.543,1.14l1.326.631a.631.631,0,0,0,.8-.219,8.062,8.062,0,0,0,.657-7.808Z" transform="translate(-377.846 -134.455)" fill="#aaa"/>
  </g>
</svg>
