<svg xmlns="http://www.w3.org/2000/svg" width="16" height="16.319" viewBox="0 0 16 16.319">
  <g id="Products" transform="translate(0 -27.614)">
    <path id="Path_440" data-name="Path 440" d="M86.12,280.744v4.573l-4.56,2.645-4.543-2.644v-4.574H75.94v4.885a.541.541,0,0,0,.269.468l5.081,2.958a.536.536,0,0,0,.539,0l5.1-2.958a.541.541,0,0,0,.269-.469v-4.885Z" transform="translate(-73.559 -245.195)" fill="#aaa"/>
    <path id="Path_441" data-name="Path 441" d="M12.886,169.628l-5.108,2.878L5.2,173.86l-3.641-2.211,1.665-1.1-.6-.9-2.38,1.569a.541.541,0,0,0,.018.915l2.325,1.406L4.9,174.944a.541.541,0,0,0,.533.017l2.863-1.5,5.122-2.885Z" transform="translate(-0.005 -137.563)" fill="#aaa"/>
    <path id="Path_442" data-name="Path 442" d="M97.86,171.234,95.5,169.665l-.6.9,1.652,1.1-3.644,2.213-2.563-1.346-5.1-2.885-.533.942,5.118,2.894,2.849,1.5a.542.542,0,0,0,.534-.017l2.306-1.406,2.326-1.407a.541.541,0,0,0,.019-.914Z" transform="translate(-82.102 -137.579)" fill="#aaa"/>
    <path id="Path_443" data-name="Path 443" d="M97.8,30.508l-4.635-2.813a.54.54,0,0,0-.53-.018l-2.849,1.479-.018.01-5.1,2.9.535.94,5.094-2.9,2.57-1.334,3.647,2.213-1.653,1.1.6.9,2.362-1.569a.541.541,0,0,0-.019-.913Z" transform="translate(-82.062 -0.002)" fill="#aaa"/>
    <path id="Path_444" data-name="Path 444" d="M8.292,29.163l-.018-.01L5.425,27.675a.54.54,0,0,0-.53.018L.26,30.505a.541.541,0,0,0-.017.914l2.38,1.569.6-.9-1.667-1.1L5.2,28.775l2.571,1.334,5.113,2.9.533-.941Z" transform="translate(0)" fill="#aaa"/>
    <rect id="Rectangle_362" data-name="Rectangle 362" width="1.082" height="7.969" transform="translate(7.459 35.422)" fill="#aaa"/>
  </g>
</svg>
