<svg xmlns="http://www.w3.org/2000/svg" width="16" height="14.216" viewBox="0 0 16 14.216">
  <g id="Purchese_history" data-name="Purchese history" transform="translate(0 -27.364)">
    <path id="Path_436" data-name="Path 436" d="M14.72,178.11H13.7a1.714,1.714,0,0,1-1.682,2.024,1.7,1.7,0,0,1-1.458-.816,1.724,1.724,0,0,1-.22-1.208H5.659a1.727,1.727,0,0,1-.22,1.209,1.709,1.709,0,0,1-2.359.558A1.723,1.723,0,0,1,2.3,178.11H1.28a1.285,1.285,0,0,0,0,2.57h.141l.939,5.732a1.238,1.238,0,0,0,1.22,1.04h8.841a1.238,1.238,0,0,0,1.22-1.04l.938-5.732h.142a1.285,1.285,0,0,0,0-2.57Zm-9.263,7.856a.788.788,0,0,1-.115.009.77.77,0,0,1-.758-.657l-.531-3.558a.768.768,0,1,1,1.519-.229l.532,3.558A.771.771,0,0,1,5.457,185.966Zm3.311-.763a.768.768,0,1,1-1.535,0v-3.558a.768.768,0,1,1,1.535,0Zm3.18-3.443-.532,3.558a.769.769,0,0,1-.758.657.787.787,0,0,1-.115-.009.771.771,0,0,1-.645-.877l.532-3.558a.768.768,0,1,1,1.519.229Z" transform="translate(0 -145.873)" fill="#aaa"/>
    <path id="Path_437" data-name="Path 437" d="M85.854,33.628A1.2,1.2,0,0,0,87.6,32.152l2.29-3.7a.712.712,0,1,0-1.212-.749l-2.289,3.7a1.2,1.2,0,0,0-.54,2.225Z" transform="translate(-82.507 0)" fill="#aaa"/>
    <path id="Path_438" data-name="Path 438" d="M263.847,32.152a1.207,1.207,0,1,0,1.211-.749l-2.29-3.7a.712.712,0,1,0-1.211.749Z" transform="translate(-252.944 0)" fill="#aaa"/>
  </g>
</svg>
