<svg xmlns="http://www.w3.org/2000/svg" width="16.003" height="11" viewBox="0 0 16.003 11">
  <path id="Icon_awesome-ticket-alt" data-name="Icon awesome-ticket-alt" d="M3.556,7.25h8.891v5.5H3.556ZM14.669,10A1.355,1.355,0,0,0,16,11.375v2.75A1.355,1.355,0,0,1,14.669,15.5H1.334A1.355,1.355,0,0,1,0,14.125v-2.75A1.355,1.355,0,0,0,1.334,10,1.355,1.355,0,0,0,0,8.625V5.875A1.355,1.355,0,0,1,1.334,4.5H14.669A1.355,1.355,0,0,1,16,5.875v2.75A1.355,1.355,0,0,0,14.669,10ZM13.336,7.021a.677.677,0,0,0-.667-.687H3.334a.677.677,0,0,0-.667.688v5.958a.677.677,0,0,0,.667.688h9.335a.677.677,0,0,0,.667-.687Z" transform="translate(0 -4.5)" fill="#aaa"/>
</svg>
