<svg xmlns="http://www.w3.org/2000/svg" width="16" height="14" viewBox="0 0 16 14">
  <g id="Withdraw" transform="translate(0 -42.667)">
    <g id="Group_926" data-name="Group 926" transform="translate(0 42.667)">
      <g id="Group_925" data-name="Group 925" transform="translate(0 0)">
        <path id="Path_450" data-name="Path 450" d="M14,42.667H2a2.054,2.054,0,0,0-2,2.1v2.8a2.054,2.054,0,0,0,2,2.1H3.333v6.3a.684.684,0,0,0,.667.7h8a.683.683,0,0,0,.667-.7v-6.3H14a2.054,2.054,0,0,0,2-2.1v-2.8A2.054,2.054,0,0,0,14,42.667Zm-2.667,12.6H4.667v-8.4h6.667v8.4Zm3.333-7.7a.685.685,0,0,1-.667.7H12.667v-1.4h.667a.7.7,0,0,0,0-1.4H2.667a.7.7,0,0,0,0,1.4h.667v1.4H2a.685.685,0,0,1-.667-.7v-2.8a.685.685,0,0,1,.667-.7H14a.685.685,0,0,1,.667.7Z" transform="translate(0 -42.667)" fill="#aaa"/>
      </g>
    </g>
    <g id="Group_928" data-name="Group 928" transform="translate(6.507 48.254)">
      <g id="Group_927" data-name="Group 927" transform="translate(0 0)">
        <path id="Path_451" data-name="Path 451" d="M209.973,210.23v-.993a2.262,2.262,0,0,1,.613.26.3.3,0,0,0,.12,0,.334.334,0,0,0,.34-.327.271.271,0,0,0-.067-.173,1.612,1.612,0,0,0-1.007-.42v-.353a.234.234,0,0,0-.233-.227h-.007a.233.233,0,0,0-.239.227v.347a1.2,1.2,0,0,0-1.233,1.133c0,.767.633.98,1.233,1.133v1.12a1.6,1.6,0,0,1-.767-.327.322.322,0,0,0-.193-.067.333.333,0,0,0-.32.333.278.278,0,0,0,.067.18,1.811,1.811,0,0,0,1.213.493v.341a.241.241,0,0,0,.48-.007v-.333a1.217,1.217,0,0,0,1.26-1.167C211.233,210.623,210.573,210.39,209.973,210.23Zm-.48-.147c-.307-.087-.527-.167-.527-.427s.207-.44.527-.473Zm.48,1.873v-.993c.313.093.547.267.547.487S210.366,211.9,209.973,211.956Z" transform="translate(-208.213 -207.996)" fill="#aaa"/>
      </g>
    </g>
  </g>
</svg>
