<svg width="16" height="14" viewBox="0 0 16 14" fill="none" xmlns="http://www.w3.org/2000/svg">
<path d="M15.2435 2.89036L9.88655 8.24727C9.28924 8.84307 8.48002 9.17766 7.63636 9.17766C6.79271 9.17766 5.98349 8.84307 5.38618 8.24727L0.0292727 2.89036C0.0203636 2.99091 0 3.08191 0 3.18182V10.8182C0.00101045 11.6617 0.336561 12.4705 0.933049 13.067C1.52954 13.6634 2.33826 13.999 3.18182 14H12.0909C12.9345 13.999 13.7432 13.6634 14.3397 13.067C14.9362 12.4705 15.2717 11.6617 15.2727 10.8182V3.18182C15.2727 3.08191 15.2524 2.99091 15.2435 2.89036Z" fill="#8B8B8B"/>
<path d="M8.9867 7.34745L14.7992 1.53427C14.5177 1.06738 14.1205 0.680933 13.6461 0.412192C13.1717 0.143451 12.6361 0.00148952 12.0909 0H3.18179C2.63657 0.00148952 2.10093 0.143451 1.62654 0.412192C1.15214 0.680933 0.755005 1.06738 0.473428 1.53427L6.28597 7.34745C6.64461 7.70465 7.13016 7.90521 7.63634 7.90521C8.14251 7.90521 8.62806 7.70465 8.9867 7.34745Z" fill="#8B8B8B"/>
</svg>
