<svg width="14" height="14" viewBox="0 0 14 14" fill="none" xmlns="http://www.w3.org/2000/svg">
<path d="M10.8442 0H3.15583C1.41283 0 0 1.41283 0 3.15583V10.8442C0 12.5872 1.41283 14 3.15583 14H10.8442C12.5872 14 14 12.5872 14 10.8442V3.15583C14 1.41283 12.5866 0 10.8442 0ZM10.6657 8.67125C9.68625 9.79825 7.497 11.1714 6.99883 11.3814C6.50067 11.5914 6.57417 11.2478 6.59458 11.1294C6.60683 11.0594 6.66108 10.7298 6.66108 10.7298C6.67683 10.6108 6.69317 10.4259 6.64592 10.3081C6.59342 10.178 6.38692 10.1109 6.23467 10.0777C3.99175 9.78133 2.331 8.21333 2.331 6.34083C2.331 4.2525 4.42517 2.55267 6.99883 2.55267C9.5725 2.55267 11.6667 4.25192 11.6667 6.34083C11.6661 7.17617 11.3423 7.92925 10.6657 8.67125Z" fill="#8B8B8B"/>
<path d="M9.22245 5.84033V6.18392H10.1138C10.1628 6.18392 10.203 6.22417 10.203 6.27317V6.6045C10.203 6.6535 10.1634 6.69375 10.1138 6.69375H9.22245V7.03733H10.1138C10.1628 7.03733 10.203 7.07758 10.203 7.12658V7.45792C10.203 7.50692 10.1634 7.54658 10.1138 7.54658H8.80245C8.75345 7.54658 8.7132 7.50692 8.7132 7.45792V5.42033C8.7132 5.37133 8.75287 5.33108 8.80245 5.33108H10.1138C10.1628 5.33108 10.203 5.37075 10.203 5.42033V5.75108C10.203 5.80008 10.1634 5.84033 10.1138 5.84033H9.22245Z" fill="#8B8B8B"/>
<path d="M5.35145 7.12658V7.45792C5.35145 7.50692 5.31178 7.54658 5.2622 7.54658H3.95086C3.90186 7.54658 3.8622 7.50692 3.8622 7.45792V5.42033C3.8622 5.37133 3.90186 5.33108 3.95086 5.33108H4.2822C4.3312 5.33108 4.37145 5.37075 4.37145 5.42033V7.03733H5.26278C5.31178 7.03733 5.35145 7.07758 5.35145 7.12658Z" fill="#8B8B8B"/>
<path d="M6.14128 5.42033V7.45733C6.14128 7.50633 6.10161 7.546 6.05203 7.546H5.72128C5.67228 7.546 5.63203 7.50633 5.63203 7.45733V5.42033C5.63203 5.37133 5.6717 5.33108 5.72128 5.33108H6.05203C6.10103 5.33108 6.14128 5.37133 6.14128 5.42033Z" fill="#8B8B8B"/>
<path d="M8.3947 5.42033V7.45733C8.3947 7.50633 8.35503 7.546 8.30545 7.546H7.97645C7.94728 7.546 7.9187 7.53142 7.90178 7.5075L6.96845 6.2475V7.45733C6.96845 7.50633 6.92878 7.546 6.8792 7.546H6.54787C6.49887 7.546 6.45861 7.50633 6.45861 7.45733V5.42033C6.45861 5.37133 6.49828 5.33108 6.54787 5.33108H6.87686C6.90778 5.33108 6.93461 5.34742 6.9527 5.37133L7.88487 6.63017V5.42033C7.88487 5.37133 7.92453 5.33108 7.97412 5.33108H8.30545C8.35503 5.33108 8.3947 5.37133 8.3947 5.42033Z" fill="#8B8B8B"/>
</svg>
