<svg width="14" height="14" viewBox="0 0 14 14" fill="none" xmlns="http://www.w3.org/2000/svg">
<path d="M11.9294 11.9295H9.8548V8.68065C9.8548 7.90587 9.841 6.90894 8.77576 6.90894C7.69535 6.90894 7.52977 7.75271 7.52977 8.62477V11.9295H5.45588V5.2483H7.44767V6.16107H7.47527C7.88163 5.46701 8.6364 5.05237 9.44016 5.08203C11.543 5.08203 11.9301 6.46532 11.9301 8.26394L11.9294 11.9295ZM3.11498 4.33485C2.4499 4.33485 1.91107 3.79603 1.91107 3.13094C1.91107 2.46586 2.4499 1.92704 3.11498 1.92704C3.78006 1.92704 4.31889 2.46586 4.31889 3.13094C4.31889 3.79603 3.78006 4.33485 3.11498 4.33485ZM4.15193 11.9295H2.07528V5.2483H4.15193V11.9295ZM12.9636 0.000784156H1.03281C0.469145 -0.00542511 0.00689919 0.446472 0 1.01014V12.9899C0.00689919 13.5542 0.469145 14.0061 1.03281 13.9999H12.9636C13.5286 14.0068 13.9929 13.5549 14.0005 12.9899V1.00945C13.9922 0.444402 13.5279 -0.0074949 12.9636 9.42052e-05" fill="#8B8B8B"/>
</svg>
