<svg width="14" height="14" viewBox="0 0 14 14" fill="none" xmlns="http://www.w3.org/2000/svg">
<path fill-rule="evenodd" clip-rule="evenodd" d="M7.00008 0C3.0567 0 0 2.8887 0 6.79007C0 8.8306 0.836509 10.5946 2.19861 11.8126C2.31294 11.9147 2.38178 12.0582 2.38703 12.2116L2.42494 13.4565C2.43719 13.8537 2.84728 14.1122 3.2107 13.9517L4.60022 13.3386C4.71805 13.2867 4.84989 13.2774 4.97414 13.3112C5.61231 13.4868 6.2919 13.5801 7.00008 13.5801C10.9435 13.5801 14.0002 10.6915 14.0002 6.79007C14.0002 2.8887 10.9435 0 7.00008 0ZM11.2036 5.22439L9.14735 8.48701C8.8201 9.00618 8.1195 9.1351 7.62892 8.76701L5.99323 7.54025C5.84331 7.42766 5.63681 7.42825 5.48748 7.542L3.27837 9.21793C2.98378 9.44135 2.59878 9.08902 2.79595 8.77576L4.85222 5.51314C5.17947 4.99397 5.88006 4.86505 6.37065 5.23314L8.00634 6.4599C8.15625 6.57249 8.36276 6.57191 8.51209 6.45815L10.7212 4.78222C11.0164 4.5588 11.4008 4.91114 11.2036 5.22439Z" fill="#8B8B8B"/>
</svg>
