<svg width="14" height="14" viewBox="0 0 14 14" fill="none" xmlns="http://www.w3.org/2000/svg">
<path d="M6.99417 0C3.13133 0 0 3.13133 0 6.99417C0 9.95867 1.84217 12.4915 4.44383 13.5106C4.38025 12.9582 4.32892 12.1059 4.46658 11.5016C4.59317 10.9544 5.28383 8.02433 5.28383 8.02433C5.28383 8.02433 5.07675 7.60433 5.07675 6.98833C5.07675 6.01533 5.64083 5.29025 6.34317 5.29025C6.94167 5.29025 7.22983 5.73942 7.22983 6.27492C7.22983 6.87342 6.85008 7.77175 6.64825 8.6065C6.48142 9.303 6.99942 9.87292 7.68425 9.87292C8.92792 9.87292 9.88342 8.56042 9.88342 6.67217C9.88342 4.99683 8.68058 3.82842 6.95917 3.82842C4.96767 3.82842 3.79867 5.31942 3.79867 6.86233C3.79867 7.46083 4.02908 8.106 4.31667 8.45717C4.375 8.52542 4.38083 8.589 4.36333 8.65783C4.31142 8.87658 4.19067 9.35433 4.16733 9.45233C4.13875 9.57892 4.0635 9.6075 3.93108 9.5445C3.05608 9.13558 2.50892 7.86333 2.50892 6.83317C2.50892 4.62817 4.109 2.60225 7.13125 2.60225C9.555 2.60225 11.4427 4.3295 11.4427 6.64358C11.4427 9.05567 9.92308 10.9958 7.81608 10.9958C7.10792 10.9958 6.44 10.6272 6.216 10.1897C6.216 10.1897 5.86483 11.5249 5.7785 11.8533C5.62333 12.4635 5.19692 13.2236 4.90933 13.6897C5.56617 13.8903 6.25742 14 6.9825 14C10.8453 14 13.9767 10.8687 13.9767 7.00583C13.9883 3.13133 10.857 0 6.99417 0Z" fill="#8B8B8B"/>
</svg>
