<svg width="15" height="14" viewBox="0 0 15 14" fill="none" xmlns="http://www.w3.org/2000/svg">
<path d="M7.40017 11.2134C5.07443 11.2134 4.01218 10.0287 4.01218 9.1595C4.0116 8.95242 4.09676 8.75408 4.24726 8.61117C4.39776 8.46883 4.60018 8.39417 4.80726 8.40583C5.80301 8.40583 5.54226 9.89917 7.40017 9.89917C8.34984 9.89917 8.90751 9.3275 8.90751 8.79025C8.90751 8.46767 8.72317 8.099 8.09609 7.95142L6.02176 7.42817C4.35518 7.00409 4.06468 6.07775 4.06468 5.21792C4.06468 3.43409 5.69626 2.78834 7.25026 2.78834C8.68176 2.78834 10.3828 3.57876 10.3828 4.64859C10.3828 5.10942 9.99775 5.35617 9.55092 5.35617C8.70042 5.35617 8.84334 4.16209 7.13301 4.16209C6.28251 4.16209 5.83509 4.56109 5.83509 5.11876C5.83509 5.67642 6.49659 5.86542 7.07759 5.99259L8.60826 6.3385C10.2865 6.7165 10.7333 7.70059 10.7333 8.64325C10.7333 10.0928 9.611 11.2134 7.39842 11.2134M13.8215 8.14567C13.888 7.76534 13.9212 7.37975 13.9207 6.993C13.9288 5.05226 13.076 3.20834 11.5926 1.95768C10.1092 0.707012 8.14742 0.177929 6.23584 0.513929C5.64843 0.175596 4.98226 -0.00173717 4.30443 1.28278e-05C2.91318 0.00876282 1.63043 0.754262 0.935099 1.95943C0.239184 3.16459 0.2351 4.64801 0.923433 5.85726C0.5396 7.96775 1.21218 10.1325 2.72476 11.6532C4.23734 13.174 6.39859 13.8588 8.51084 13.4861C9.09767 13.8238 9.76325 14.0012 10.4399 14C11.8306 13.9912 13.1122 13.2457 13.8075 12.0412C14.5028 10.8366 14.5087 9.35433 13.8215 8.14567Z" fill="#8B8B8B"/>
</svg>
