<svg width="16" height="14" viewBox="0 0 16 14" fill="none" xmlns="http://www.w3.org/2000/svg">
<path d="M9.86317 0H1.40014C0.625363 0 0 0.625363 0 1.40014V7.00068C0 7.77539 0.625363 8.40081 1.40014 8.40081H1.86685V9.80095C1.86685 10.1381 2.21598 10.3823 2.55758 10.2117C2.56691 10.2023 2.58561 10.2023 2.59495 10.193C5.16236 8.47125 4.58697 8.85514 5.16186 8.47545C5.23651 8.42878 5.32051 8.40081 5.41386 8.40081H9.86317C10.6379 8.40081 11.2633 7.77539 11.2633 7.00068V1.40014C11.2633 0.625363 10.6379 0 9.86317 0ZM6.12948 5.60054H2.33356C1.71834 5.60054 1.71582 4.66712 2.33356 4.66712H6.12948C6.7447 4.66712 6.74722 5.60054 6.12948 5.60054ZM8.92975 3.73369H2.33356C1.71834 3.73369 1.71582 2.80027 2.33356 2.80027H8.92975C9.54497 2.80027 9.54749 3.73369 8.92975 3.73369Z" fill="#8B8B8B"/>
<path d="M14.5303 3.73369H12.1967V7.00067C12.1967 8.2888 11.1513 9.33423 9.86317 9.33423H5.55387L4.66712 9.92229V10.7344C4.66712 11.5091 5.29248 12.1345 6.06725 12.1345H10.6566L13.3355 13.9266C13.7011 14.1297 14.0636 13.8828 14.0636 13.5346V12.1345H14.5303C15.3051 12.1345 15.9304 11.5091 15.9304 10.7344V5.13383C15.9304 4.35909 15.3051 3.73369 14.5303 3.73369Z" fill="#8B8B8B"/>
</svg>
