<svg width="18" height="14" viewBox="0 0 18 14" fill="none" xmlns="http://www.w3.org/2000/svg">
<path d="M15.4665 3.48511C15.4765 3.63659 15.4765 3.78879 15.4765 3.94171C15.4765 8.61332 11.9199 14 5.41826 14V13.9971C3.49778 14 1.61679 13.4501 0 12.4126C0.279277 12.4464 0.55999 12.4629 0.841421 12.4636C2.4338 12.4651 3.98024 11.9309 5.2316 10.9473C3.71891 10.9186 2.39216 9.93217 1.92909 8.49199C2.45893 8.59394 3.00456 8.57312 3.52507 8.43169C1.87525 8.09856 0.689219 6.64905 0.689219 4.96621C0.689219 4.95113 0.689219 4.93606 0.689219 4.9217C1.181 5.19595 1.73094 5.34743 2.29381 5.36395C0.740192 4.32653 0.260611 2.26031 1.19895 0.644951C2.99379 2.85332 5.64226 4.19586 8.48457 4.33873C8.19955 3.11106 8.58939 1.82452 9.50691 0.960843C10.9306 -0.378108 13.1698 -0.309186 14.5088 1.11448C15.3007 0.958689 16.0595 0.667925 16.7538 0.256548C16.4896 1.075 15.9375 1.76996 15.1994 2.21221C15.9008 2.12821 16.585 1.94083 17.2305 1.65509C16.7559 2.36513 16.1586 2.98471 15.4665 3.48511Z" fill="#8B8B8B"/>
</svg>
