<svg width="13" height="14" viewBox="0 0 13 14" fill="none" xmlns="http://www.w3.org/2000/svg">
<path d="M7.69679 0H4.89796C2.20408 0 0 2.20408 0 4.89796V6.99708C0 8.8863 1.10204 10.6181 2.79883 11.4227V13.7668C2.79883 13.9767 3.06122 14.0816 3.20117 13.9242L5.23032 11.895H7.69679C10.3907 11.895 12.5948 9.69096 12.5948 6.99708V4.89796C12.5948 2.20408 10.3907 0 7.69679 0V0ZM9.53353 9.18367L8.81633 9.88338C8.06414 10.6181 6.12245 9.77843 4.40816 8.02915C2.69388 6.27988 1.94169 4.3207 2.65889 3.58601L3.3586 2.8863C3.62099 2.62391 4.05831 2.6414 4.35569 2.90379L5.37026 3.95335C5.73761 4.3207 5.58018 4.95044 5.10787 5.09038C4.77551 5.19534 4.5481 5.56268 4.65306 5.89504C4.82799 6.66472 5.80758 7.64431 6.54227 7.83673C6.87464 7.90671 7.24198 7.73178 7.36443 7.39942C7.52187 6.92711 8.1516 6.78717 8.50146 7.15452L9.51604 8.20408C9.79592 8.44898 9.79592 8.8863 9.53353 9.18367V9.18367ZM6.92711 3.32362C6.85714 3.32362 6.78717 3.32362 6.7172 3.34111C6.59475 3.3586 6.4723 3.25364 6.45481 3.1312C6.43732 3.00875 6.54227 2.8863 6.66472 2.8688C6.75219 2.85131 6.83965 2.85131 6.92711 2.85131C8.20408 2.85131 9.25364 3.90087 9.25364 5.17784C9.25364 5.26531 9.25364 5.35277 9.23615 5.44023C9.21866 5.56268 9.09621 5.66764 8.97376 5.65015C8.85131 5.63265 8.74636 5.5102 8.76385 5.38776C8.76385 5.31778 8.78134 5.24781 8.78134 5.17784C8.79883 4.16327 7.95918 3.32362 6.92711 3.32362ZM8.32653 5.19534C8.32653 5.31778 8.22157 5.42274 8.09913 5.42274C7.97668 5.42274 7.87172 5.31778 7.87172 5.19534C7.87172 4.68805 7.4519 4.26822 6.94461 4.26822C6.82216 4.26822 6.7172 4.16327 6.7172 4.04082C6.7172 3.91837 6.82216 3.81341 6.94461 3.81341C7.69679 3.79592 8.32653 4.42566 8.32653 5.19534V5.19534ZM10.1108 5.94752C10.0758 6.06997 9.95335 6.15743 9.81341 6.12245C9.69096 6.08746 9.62099 5.96501 9.65598 5.84257C9.70845 5.63265 9.72595 5.42274 9.72595 5.19534C9.72595 3.65598 8.46647 2.3965 6.92711 2.3965C6.85714 2.3965 6.78717 2.3965 6.7172 2.3965C6.59475 2.3965 6.4723 2.30904 6.4723 2.18659C6.4723 2.06414 6.55977 1.94169 6.68222 1.94169C6.76968 1.94169 6.85714 1.9242 6.92711 1.9242C8.72886 1.9242 10.1983 3.39359 10.1983 5.19534C10.1983 5.44023 10.1633 5.70262 10.1108 5.94752V5.94752Z" fill="#8B8B8B"/>
</svg>
