<svg width="14" height="14" viewBox="0 0 14 14" fill="none" xmlns="http://www.w3.org/2000/svg">
<path fill-rule="evenodd" clip-rule="evenodd" d="M11.9035 2.03467C10.5933 0.723333 8.8515 0.000583333 6.99592 0C3.17217 0 0.0600833 3.1115 0.0583333 6.937C0.05775 8.15967 0.377417 9.35317 0.984667 10.4055L0 14L3.67733 13.0352C4.69058 13.5882 5.83158 13.8792 6.99242 13.8798H6.99533C10.8185 13.8798 13.9312 10.7677 13.9329 6.94225C13.9341 5.089 13.2131 3.34542 11.9035 2.03467ZM6.99592 12.7079H6.99358C5.95875 12.7079 4.94433 12.4297 4.05883 11.9041L3.84825 11.7793L1.666 12.3515L2.24875 10.2235L2.11167 10.0053C1.53417 9.08717 1.22967 8.02608 1.23025 6.937C1.23142 3.75783 3.8185 1.17133 6.99883 1.17133C8.53883 1.17133 9.98667 1.77217 11.0752 2.86183C12.1637 3.95208 12.7628 5.4005 12.7622 6.94108C12.7604 10.1214 10.1739 12.7079 6.99592 12.7079ZM10.1588 8.3895C9.9855 8.30258 9.13325 7.88317 8.974 7.82542C8.81533 7.76767 8.69983 7.7385 8.58375 7.91175C8.46767 8.085 8.13633 8.47583 8.03483 8.59192C7.93392 8.70742 7.83242 8.722 7.65917 8.63508C7.48592 8.54817 6.92708 8.36558 6.265 7.77467C5.74992 7.315 5.40167 6.74742 5.30075 6.57358C5.19983 6.39975 5.29025 6.30642 5.37658 6.22008C5.45475 6.1425 5.54983 6.01767 5.63675 5.91617C5.72425 5.81583 5.75283 5.7435 5.81117 5.62742C5.86892 5.51192 5.84033 5.41042 5.79658 5.3235C5.75283 5.23717 5.40633 4.38375 5.26225 4.03667C5.12167 3.69833 4.97875 3.74442 4.872 3.73917C4.77108 3.73392 4.65558 3.73333 4.5395 3.73333C4.424 3.73333 4.23617 3.7765 4.0775 3.95033C3.91883 4.12417 3.47083 4.54358 3.47083 5.39642C3.47083 6.24983 4.09208 7.07408 4.17842 7.18958C4.26475 7.30508 5.4005 9.05625 7.13942 9.807C7.553 9.9855 7.87617 10.0922 8.12758 10.1722C8.54292 10.304 8.92092 10.2853 9.21958 10.241C9.55267 10.1914 10.2451 9.82158 10.3898 9.41675C10.5344 9.01192 10.5344 8.66425 10.4907 8.5925C10.4475 8.51958 10.332 8.47642 10.1588 8.3895Z" fill="#8B8B8B"/>
</svg>
